<svg width="822" height="340" viewBox="0 0 822 340" fill="none" xmlns="http://www.w3.org/2000/svg">
<g id="walking_lady-01 1">
<g clip-path="url(#clip0)">
<g id="right_pole">
<path id="Vector" d="M535.63 158.93H527.94V251.82H535.63V158.93Z" fill="#E0E0E0"/>
<path id="Vector_2" d="M533.7 66.5H529.86V169.15H533.7V66.5Z" fill="#E0E0E0"/>
<path id="Vector_3" d="M543.67 70.05C543.67 72.4021 542.972 74.7013 541.665 76.6568C540.359 78.6123 538.501 80.1363 536.328 81.0359C534.155 81.9355 531.763 82.1704 529.457 81.7108C527.15 81.2512 525.031 80.1178 523.369 78.454C521.707 76.7901 520.575 74.6706 520.117 72.3635C519.66 70.0564 519.897 67.6654 520.798 65.493C521.699 63.3205 523.225 61.4643 525.182 60.159C527.138 58.8537 529.438 58.158 531.79 58.16C533.351 58.16 534.897 58.4676 536.339 59.0653C537.781 59.6629 539.091 60.5389 540.194 61.6431C541.297 62.7473 542.172 64.0582 542.769 65.5007C543.365 66.9432 543.671 68.4891 543.67 70.05Z" fill="#EBEBEB"/>
<path id="Vector_4" d="M534.33 82.87H529.05C528.872 82.8491 528.709 82.7637 528.59 82.6301C528.471 82.4964 528.405 82.3238 528.405 82.145C528.405 81.9661 528.471 81.7935 528.59 81.6599C528.709 81.5262 528.872 81.4409 529.05 81.42H534.33C534.508 81.4409 534.671 81.5262 534.79 81.6599C534.909 81.7935 534.975 81.9661 534.975 82.145C534.975 82.3238 534.909 82.4964 534.79 82.6301C534.671 82.7637 534.508 82.8491 534.33 82.87" fill="#E0E0E0"/>
<path id="Vector_5" d="M537.59 158.93H525.94C525.828 158.943 525.715 158.931 525.608 158.897C525.5 158.863 525.401 158.806 525.318 158.731C525.234 158.656 525.166 158.564 525.12 158.462C525.074 158.359 525.051 158.248 525.051 158.135C525.051 158.022 525.074 157.911 525.12 157.808C525.166 157.706 525.234 157.614 525.318 157.539C525.401 157.464 525.5 157.407 525.608 157.373C525.715 157.339 525.828 157.327 525.94 157.34H537.63C537.825 157.362 538.006 157.455 538.137 157.602C538.268 157.748 538.341 157.938 538.341 158.135C538.341 158.332 538.268 158.522 538.137 158.668C538.006 158.815 537.825 158.908 537.63 158.93" fill="#E0E0E0"/>
</g>
<g id="left_pole">
<path id="Vector_6" d="M205.17 158.02H197.48V250.91H205.17V158.02Z" fill="#E0E0E0"/>
<path id="Vector_7" d="M203.24 65.58H199.4V168.23H203.24V65.58Z" fill="#E0E0E0"/>
<path id="Vector_8" d="M213.21 69.13C213.212 71.482 212.516 73.7818 211.211 75.7385C209.906 77.6951 208.049 79.2206 205.877 80.1221C203.705 81.0235 201.314 81.2604 199.007 80.8028C196.699 80.3451 194.58 79.2135 192.916 77.551C191.252 75.8886 190.119 73.77 189.659 71.4633C189.2 69.1566 189.434 66.7654 190.334 64.5922C191.234 62.419 192.758 60.5615 194.713 59.2545C196.669 57.9476 198.968 57.25 201.32 57.25C204.472 57.25 207.494 58.5013 209.724 60.729C211.953 62.9566 213.207 65.9783 213.21 69.13" fill="#EBEBEB"/>
<path id="Vector_9" d="M203.86 81.96H198.59C198.396 81.96 198.211 81.8831 198.074 81.7462C197.937 81.6093 197.86 81.4236 197.86 81.23C197.863 81.0381 197.941 80.855 198.077 80.7203C198.214 80.5855 198.398 80.51 198.59 80.51H203.86C203.955 80.5087 204.05 80.5263 204.139 80.5619C204.227 80.5975 204.308 80.6503 204.376 80.7173C204.444 80.7843 204.497 80.8641 204.534 80.9521C204.571 81.0401 204.59 81.1346 204.59 81.23C204.59 81.4236 204.513 81.6093 204.376 81.7462C204.239 81.8831 204.054 81.96 203.86 81.96" fill="#E0E0E0"/>
<path id="Vector_10" d="M207.12 158.02H195.44C195.228 158.02 195.024 157.936 194.874 157.786C194.724 157.636 194.64 157.432 194.64 157.22C194.64 157.008 194.724 156.804 194.874 156.654C195.024 156.504 195.228 156.42 195.44 156.42H207.12C207.332 156.42 207.536 156.504 207.686 156.654C207.836 156.804 207.92 157.008 207.92 157.22C207.92 157.432 207.836 157.636 207.686 157.786C207.536 157.936 207.332 158.02 207.12 158.02Z" fill="#E0E0E0"/>
</g>
<g id="building4">
<path id="Vector_11" d="M434.41 48.77H370.86V250.18H434.41V48.77Z" fill="#F5F5F5"/>
<path id="Vector_12" d="M434.42 48.77H402.64V249.63H434.42V48.77Z" fill="#EBEBEB"/>
<path id="Vector_13" d="M400.56 29H378.12V48.77H400.56V29Z" fill="#F5F5F5"/>
<path id="Vector_14" d="M400.56 29H395.21V48.77H400.56V29Z" fill="#EBEBEB"/>
<path id="Vector_15" d="M365.57 48.77V47.62H436.28V48.77" fill="#E0E0E0"/>
<path id="Vector_16" d="M388.79 57.4H383.41V68.74H388.79V57.4Z" fill="#FAFAFA"/>
<path id="Vector_17" d="M402.64 73.19C402.64 73.31 395.53 73.41 386.75 73.41C377.97 73.41 370.86 73.31 370.86 73.19C370.86 73.07 377.97 72.98 386.75 72.98C395.53 72.98 402.64 73.07 402.64 73.19Z" fill="#E0E0E0"/>
<path id="Vector_18" d="M420.84 57.4H415.46V68.74H420.84V57.4Z" fill="#E0E0E0"/>
<path id="Vector_19" d="M434.69 73.19C434.69 73.31 427.58 73.41 418.8 73.41C410.02 73.41 402.94 73.31 402.94 73.19C402.94 73.07 410.05 72.98 418.82 72.98C427.59 72.98 434.71 73.07 434.71 73.19" fill="#E0E0E0"/>
<path id="Vector_20" d="M420.84 79.92H415.46V91.26H420.84V79.92Z" fill="#E0E0E0"/>
<path id="Vector_21" d="M434.69 95.74C434.69 95.86 427.58 95.96 418.8 95.96C410.02 95.96 402.94 95.83 402.94 95.74C402.94 95.65 410.05 95.53 418.82 95.53C427.59 95.53 434.71 95.62 434.71 95.74" fill="#E0E0E0"/>
<path id="Vector_22" d="M420.84 103.12H415.46V114.46H420.84V103.12Z" fill="#E0E0E0"/>
<path id="Vector_23" d="M434.69 118.91C434.69 119.03 427.58 119.13 418.8 119.13C410.02 119.13 402.92 119.03 402.92 118.91C402.92 118.79 410.03 118.7 418.8 118.7C427.57 118.7 434.69 118.79 434.69 118.91Z" fill="#E0E0E0"/>
<path id="Vector_24" d="M420.84 126.32H415.46V137.66H420.84V126.32Z" fill="#E0E0E0"/>
<path id="Vector_25" d="M434.69 142.11C434.69 142.23 427.58 142.33 418.8 142.33C410.02 142.33 402.92 142.23 402.92 142.11C402.92 141.99 410.03 141.9 418.8 141.9C427.57 141.9 434.69 141.99 434.69 142.11Z" fill="#E0E0E0"/>
<path id="Vector_26" d="M420.84 148.85H415.46V160.19H420.84V148.85Z" fill="#E0E0E0"/>
<path id="Vector_27" d="M434.69 164.65C434.69 164.77 427.58 164.87 418.8 164.87C410.02 164.87 402.94 164.74 402.94 164.65C402.94 164.56 410.05 164.43 418.82 164.43C427.59 164.43 434.71 164.53 434.71 164.65" fill="#E0E0E0"/>
<path id="Vector_28" d="M420.84 171.48H415.46V182.82H420.84V171.48Z" fill="#E0E0E0"/>
<path id="Vector_29" d="M420.84 194.41H415.46V205.75H420.84V194.41Z" fill="#E0E0E0"/>
<path id="Vector_30" d="M434.69 187.28C434.69 187.4 427.58 187.49 418.8 187.49C410.02 187.49 402.92 187.4 402.92 187.28C402.92 187.16 410.03 187.06 418.8 187.06C427.57 187.06 434.69 187.16 434.69 187.28Z" fill="#E0E0E0"/>
<path id="Vector_31" d="M388.79 80.26H383.41V91.6H388.79V80.26Z" fill="#FAFAFA"/>
<path id="Vector_32" d="M402.64 96.06C402.64 96.18 395.53 96.27 386.75 96.27C377.97 96.27 370.86 96.18 370.86 96.06C370.86 95.94 377.97 95.84 386.75 95.84C395.53 95.84 402.64 95.94 402.64 96.06Z" fill="#E0E0E0"/>
<path id="Vector_33" d="M388.79 103.13H383.41V114.47H388.79V103.13Z" fill="#FAFAFA"/>
<path id="Vector_34" d="M402.64 118.92C402.64 119.04 395.53 119.14 386.75 119.14C377.97 119.14 370.86 119.04 370.86 118.92C370.86 118.8 377.94 118.74 386.75 118.74C395.56 118.74 402.64 118.84 402.64 118.96" fill="#E0E0E0"/>
<path id="Vector_35" d="M388.79 125.99H383.41V137.33H388.79V125.99Z" fill="#FAFAFA"/>
<path id="Vector_36" d="M402.64 141.79C402.64 141.9 395.53 142 386.75 142C377.97 142 370.86 141.9 370.86 141.79C370.86 141.68 377.97 141.57 386.75 141.57C395.53 141.57 402.64 141.67 402.64 141.79Z" fill="#E0E0E0"/>
<path id="Vector_37" d="M388.79 148.85H383.41V160.19H388.79V148.85Z" fill="#FAFAFA"/>
<path id="Vector_38" d="M402.64 164.65C402.64 164.77 395.53 164.87 386.75 164.87C377.97 164.87 370.86 164.77 370.86 164.65C370.86 164.53 377.97 164.43 386.75 164.43C395.53 164.43 402.64 164.53 402.64 164.65Z" fill="#E0E0E0"/>
<path id="Vector_39" d="M388.79 171.72H383.41V183.06H388.79V171.72Z" fill="#FAFAFA"/>
<path id="Vector_40" d="M402.64 187.51C402.64 187.63 395.53 187.73 386.75 187.73C377.97 187.73 370.86 187.63 370.86 187.51C370.86 187.39 377.97 187.3 386.75 187.3C395.53 187.3 402.64 187.39 402.64 187.51Z" fill="#E0E0E0"/>
<path id="Vector_41" d="M388.79 194.58H383.41V205.92H388.79V194.58Z" fill="#FAFAFA"/>
</g>
<g id="building3">
<path id="Vector_42" d="M479.83 161.51H433.11V250.19H479.83V161.51Z" fill="#E0E0E0"/>
<path id="Vector_43" d="M479.84 161.51H457.93V250.19H479.84V161.51Z" fill="#EBEBEB"/>
<path id="Vector_44" d="M447.11 169.86H442.91V180.07H447.11V169.86Z" fill="#F5F5F5"/>
<path id="Vector_45" d="M447.11 209.8H442.91V220.01H447.11V209.8Z" fill="#F5F5F5"/>
<path id="Vector_46" d="M457.94 184.07C457.94 184.16 452.38 184.23 445.53 184.23C438.68 184.23 433.12 184.16 433.12 184.07C433.12 183.98 438.68 183.91 445.53 183.91C452.38 183.91 457.94 183.98 457.94 184.07Z" fill="#F5F5F5"/>
<path id="Vector_47" d="M447.11 189.98H442.91V200.19H447.11V189.98Z" fill="#F5F5F5"/>
<path id="Vector_48" d="M457.94 204.19C457.94 204.28 452.38 204.35 445.53 204.35C438.68 204.35 433.12 204.28 433.12 204.19C433.12 204.1 438.68 204.03 445.53 204.03C452.38 204.03 457.94 204.11 457.94 204.19Z" fill="#F5F5F5"/>
<path id="Vector_49" d="M466.78 169.86H462.58V180.07H466.78V169.86Z" fill="#E0E0E0"/>
<path id="Vector_50" d="M475.9 169.86H471.7V180.07H475.9V169.86Z" fill="#E0E0E0"/>
<path id="Vector_51" d="M466.78 189.22H462.58V199.43H466.78V189.22Z" fill="#E0E0E0"/>
<path id="Vector_52" d="M475.9 189.22H471.7V199.43H475.9V189.22Z" fill="#E0E0E0"/>
<path id="Vector_53" d="M466.78 208.59H462.58V218.8H466.78V208.59Z" fill="#E0E0E0"/>
<path id="Vector_54" d="M475.9 208.59H471.7V218.8H475.9V208.59Z" fill="#E0E0E0"/>
<path id="Vector_55" d="M483.35 159.37H429.6V161.59H483.35V159.37Z" fill="#E0E0E0"/>
<path id="Vector_56" d="M480.16 161.8C480.16 161.89 469.72 161.96 456.84 161.96C443.96 161.96 433.52 161.89 433.52 161.8C433.52 161.71 443.96 161.64 456.84 161.64C469.72 161.64 480.16 161.71 480.16 161.8Z" fill="#EBEBEB"/>
</g>
<g id="building2">
<path id="Vector_57" d="M381.84 107.41H327.29V250.19H381.84V107.41Z" fill="#EBEBEB"/>
<g id="building2_2">
<path id="Vector_58" d="M381.83 107.41H354.56V250.19H381.83V107.41Z" fill="#E0E0E0"/>
<path id="Vector_59" d="M352.78 90.44H333.52V107.41H352.78V90.44Z" fill="#EBEBEB"/>
<path id="Vector_60" d="M352.78 90.44H348.19V107.41H352.78V90.44Z" fill="#E0E0E0"/>
<path id="Vector_61" d="M383.43 106.42H322.74V107.41H383.43V106.42Z" fill="#E0E0E0"/>
<path id="Vector_62" d="M342.68 114.81H338.06V124.55H342.68V114.81Z" fill="white"/>
<path id="Vector_63" d="M354.56 128.37C354.56 128.47 348.46 128.55 340.93 128.55C333.4 128.55 327.29 128.47 327.29 128.37C327.29 128.27 333.39 128.18 340.93 128.18C348.47 128.18 354.56 128.26 354.56 128.37Z" fill="#E0E0E0"/>
<path id="Vector_64" d="M370.19 114.81H365.57V124.55H370.19V114.81Z" fill="#F5F5F5"/>
<path id="Vector_65" d="M382.07 128.37C382.07 128.47 375.97 128.55 368.44 128.55C360.91 128.55 354.8 128.47 354.8 128.37C354.8 128.27 360.9 128.18 368.44 128.18C375.98 128.18 382.07 128.26 382.07 128.37Z" fill="#EBEBEB"/>
<path id="Vector_66" d="M370.19 134.14H365.57V143.88H370.19V134.14Z" fill="#F5F5F5"/>
<path id="Vector_67" d="M382.07 147.74C382.07 147.84 375.97 147.92 368.44 147.92C360.91 147.92 354.8 147.84 354.8 147.74C354.8 147.64 360.9 147.55 368.44 147.55C375.98 147.55 382.07 147.63 382.07 147.74Z" fill="#EBEBEB"/>
<path id="Vector_68" d="M370.19 154.05H365.57V163.79H370.19V154.05Z" fill="#F5F5F5"/>
<path id="Vector_69" d="M382.07 167.61C382.07 167.71 375.97 167.8 368.44 167.8C360.91 167.8 354.8 167.71 354.8 167.61C354.8 167.51 360.9 167.42 368.44 167.42C375.98 167.42 382.07 167.51 382.07 167.61Z" fill="#EBEBEB"/>
<path id="Vector_70" d="M370.19 173.97H365.57V183.71H370.19V173.97Z" fill="#F5F5F5"/>
<path id="Vector_71" d="M382.07 187.52C382.07 187.63 375.97 187.71 368.44 187.71C360.91 187.71 354.8 187.63 354.8 187.52C354.8 187.41 360.9 187.34 368.44 187.34C375.98 187.34 382.07 187.42 382.07 187.52Z" fill="#EBEBEB"/>
<path id="Vector_72" d="M370.19 193.31H365.57V203.05H370.19V193.31Z" fill="#F5F5F5"/>
<path id="Vector_73" d="M382.07 206.87C382.07 206.97 375.97 207.05 368.44 207.05C360.91 207.05 354.8 206.97 354.8 206.87C354.8 206.77 360.9 206.68 368.44 206.68C375.98 206.68 382.07 206.76 382.07 206.87Z" fill="#EBEBEB"/>
<path id="Vector_74" d="M370.19 212.73H365.57V222.47H370.19V212.73Z" fill="#F5F5F5"/>
<path id="Vector_75" d="M370.19 232.41H365.57V242.15H370.19V232.41Z" fill="#F5F5F5"/>
<path id="Vector_76" d="M382.07 226.29C382.07 226.39 375.97 226.47 368.44 226.47C360.91 226.47 354.8 226.39 354.8 226.29C354.8 226.19 360.9 226.1 368.44 226.1C375.98 226.1 382.07 226.19 382.07 226.29Z" fill="#EBEBEB"/>
<path id="Vector_77" d="M342.68 134.44H338.06V144.18H342.68V134.44Z" fill="white"/>
<path id="Vector_78" d="M354.56 147.99C354.56 148.09 348.46 148.18 340.93 148.18C333.4 148.18 327.29 148.09 327.29 147.99C327.29 147.89 333.39 147.81 340.93 147.81C348.47 147.81 354.56 147.89 354.56 147.99Z" fill="#E0E0E0"/>
<path id="Vector_79" d="M342.68 154.06H338.06V163.8H342.68V154.06Z" fill="white"/>
<path id="Vector_80" d="M354.56 167.62C354.56 167.72 348.46 167.8 340.93 167.8C333.4 167.8 327.29 167.72 327.29 167.62C327.29 167.52 333.39 167.43 340.93 167.43C348.47 167.43 354.56 167.51 354.56 167.62Z" fill="#E0E0E0"/>
<path id="Vector_81" d="M342.68 173.68H338.06V183.42H342.68V173.68Z" fill="white"/>
<path id="Vector_82" d="M354.56 187.24C354.56 187.34 348.46 187.43 340.93 187.43C333.4 187.43 327.29 187.34 327.29 187.24C327.29 187.14 333.39 187.06 340.93 187.06C348.47 187.06 354.56 187.14 354.56 187.24Z" fill="#E0E0E0"/>
<path id="Vector_83" d="M342.68 193.31H338.06V203.05H342.68V193.31Z" fill="white"/>
<path id="Vector_84" d="M354.56 206.87C354.56 206.97 348.46 207.05 340.93 207.05C333.4 207.05 327.29 206.97 327.29 206.87C327.29 206.77 333.39 206.68 340.93 206.68C348.47 206.68 354.56 206.76 354.56 206.87Z" fill="#E0E0E0"/>
<path id="Vector_85" d="M342.68 212.93H338.06V222.67H342.68V212.93Z" fill="white"/>
<path id="Vector_86" d="M354.56 226.49C354.56 226.59 348.46 226.68 340.93 226.68C333.4 226.68 327.29 226.59 327.29 226.49C327.29 226.39 333.39 226.31 340.93 226.31C348.47 226.31 354.56 226.39 354.56 226.49Z" fill="#E0E0E0"/>
</g>
</g>
<g id="building1">
<path id="Vector_87" d="M341.42 161.51H294.7V250.19H341.42V161.51Z" fill="#E0E0E0"/>
<path id="Vector_88" d="M341.42 161.51H319.51V250.19H341.42V161.51Z" fill="#EBEBEB"/>
<path id="Vector_89" d="M308.7 169.86H304.5V180.07H308.7V169.86Z" fill="#F5F5F5"/>
<path id="Vector_90" d="M308.7 209.8H304.5V220.01H308.7V209.8Z" fill="#F5F5F5"/>
<path id="Vector_91" d="M319.51 184.07C319.51 184.16 313.96 184.23 307.11 184.23C300.26 184.23 294.7 184.16 294.7 184.07C294.7 183.98 300.25 183.91 307.11 183.91C313.97 183.91 319.51 183.98 319.51 184.07Z" fill="#F5F5F5"/>
<path id="Vector_92" d="M308.7 189.98H304.5V200.19H308.7V189.98Z" fill="#F5F5F5"/>
<path id="Vector_93" d="M319.51 204.19C319.51 204.28 313.96 204.35 307.11 204.35C300.26 204.35 294.7 204.28 294.7 204.19C294.7 204.1 300.25 204.03 307.11 204.03C313.97 204.03 319.51 204.11 319.51 204.19Z" fill="#F5F5F5"/>
<path id="Vector_94" d="M328.37 169.86H324.17V180.07H328.37V169.86Z" fill="#E0E0E0"/>
<path id="Vector_95" d="M337.48 169.86H333.28V180.07H337.48V169.86Z" fill="#E0E0E0"/>
<path id="Vector_96" d="M328.37 189.22H324.17V199.43H328.37V189.22Z" fill="#E0E0E0"/>
<path id="Vector_97" d="M337.48 189.22H333.28V199.43H337.48V189.22Z" fill="#E0E0E0"/>
<path id="Vector_98" d="M328.37 208.59H324.17V218.8H328.37V208.59Z" fill="#E0E0E0"/>
<path id="Vector_99" d="M337.48 208.59H333.28V218.8H337.48V208.59Z" fill="#E0E0E0"/>
<path id="Vector_100" d="M344.94 159.37H291.19V161.59H344.94V159.37Z" fill="#E0E0E0"/>
<path id="Vector_101" d="M341.75 161.8C341.75 161.89 331.31 161.96 318.43 161.96C305.55 161.96 295.1 161.89 295.1 161.8C295.1 161.71 305.54 161.64 318.43 161.64C331.32 161.64 341.75 161.71 341.75 161.8Z" fill="#EBEBEB"/>
</g>
<g id="building0">
<path id="Vector_102" d="M305.82 194.77H263.99V249.94H305.82V194.77Z" fill="#EBEBEB"/>
<path id="Vector_103" d="M305.82 194.77H286.21V249.94H305.82V194.77Z" fill="#E0E0E0"/>
<path id="Vector_104" d="M276.52 202.24H272.76V211.38H276.52V202.24Z" fill="#F5F5F5"/>
<path id="Vector_105" d="M276.52 238H272.76V247.14H276.52V238Z" fill="#F5F5F5"/>
<path id="Vector_106" d="M286.21 214.96C286.21 215.06 281.21 215.15 275.1 215.15C268.99 215.15 263.99 215.06 263.99 214.96C263.99 214.86 268.99 214.78 275.1 214.78C281.21 214.78 286.21 214.86 286.21 214.96Z" fill="#F5F5F5"/>
<path id="Vector_107" d="M276.52 220.25H272.76V229.39H276.52V220.25Z" fill="#F5F5F5"/>
<path id="Vector_108" d="M286.21 232.98C286.21 233.08 281.21 233.16 275.1 233.16C268.99 233.16 263.99 233.08 263.99 232.98C263.99 232.88 268.99 232.79 275.1 232.79C281.21 232.79 286.21 232.88 286.21 232.98Z" fill="#F5F5F5"/>
<path id="Vector_109" d="M294.13 202.24H290.37V211.38H294.13V202.24Z" fill="#F5F5F5"/>
<path id="Vector_110" d="M302.29 202.24H298.53V211.38H302.29V202.24Z" fill="#F5F5F5"/>
<path id="Vector_111" d="M294.13 219.58H290.37V228.72H294.13V219.58Z" fill="#F5F5F5"/>
<path id="Vector_112" d="M302.29 219.58H298.53V228.72H302.29V219.58Z" fill="#F5F5F5"/>
<path id="Vector_113" d="M294.13 236.91H290.37V246.05H294.13V236.91Z" fill="#F5F5F5"/>
<path id="Vector_114" d="M302.29 236.91H298.53V246.05H302.29V236.91Z" fill="#F5F5F5"/>
<path id="Vector_115" d="M308.97 192.85H260.85V194.84H308.97V192.85Z" fill="#E0E0E0"/>
<path id="Vector_116" d="M306.11 195.02C306.11 195.13 296.76 195.21 285.23 195.21C273.7 195.21 264.35 195.13 264.35 195.02C264.35 194.91 273.7 194.84 285.23 194.84C296.76 194.84 306.11 194.92 306.11 195.02Z" fill="#EBEBEB"/>
</g>
<g id="clouds">
<path id="Vector_117" d="M450.05 86.32H488.19C488.19 86.32 484.82 80.19 475 81.08C465.62 81.93 465.15 78.08 460.38 77.58C455.61 77.08 451.64 80.74 450.05 86.32Z" fill="#EBEBEB"/>
<path id="Vector_118" d="M290.94 56.01H329.08C329.08 56.01 325.73 49.87 315.94 50.74C306.56 51.6 306.09 47.74 301.32 47.25C296.55 46.76 292.58 50.43 290.99 55.99" fill="#EBEBEB"/>
<path id="Vector_119" d="M542.68 93.58H612.11C612.11 93.58 605.97 82.41 588.11 84.04C571.04 85.59 570.17 78.54 561.49 77.67C552.81 76.8 545.58 83.46 542.69 93.58" fill="#FAFAFA"/>
<path id="Vector_120" d="M564.23 64.34H624.5C624.5 64.34 619.17 54.64 603.65 56.05C588.84 57.4 588.08 51.28 580.55 50.52C573.02 49.76 566.74 55.52 564.23 64.34" fill="#EBEBEB"/>
</g>
<g id="lady">
<g id="floor">
<path id="Vector_121" d="M611.67 300.3C611.67 300.4 515.67 300.48 397.2 300.48C278.73 300.48 182.71 300.4 182.71 300.3C182.71 300.2 278.71 300.13 397.2 300.13C515.69 300.13 611.67 300.21 611.67 300.3Z" fill="#263238"/>
<path id="Vector_122" d="M214.84 250.42H178V259.09H214.84V250.42Z" fill="#EBEBEB"/>
<path id="Vector_123" d="M252.52 250.42H215.68V259.09H252.52V250.42Z" fill="#F5F5F5"/>
<path id="Vector_124" d="M290.2 250.42H253.36V259.09H290.2V250.42Z" fill="#EBEBEB"/>
<path id="Vector_125" d="M327.88 250.42H291.04V259.09H327.88V250.42Z" fill="#F5F5F5"/>
<path id="Vector_126" d="M365.55 250.42H328.71V259.09H365.55V250.42Z" fill="#EBEBEB"/>
<path id="Vector_127" d="M403.23 250.42H366.39V259.09H403.23V250.42Z" fill="#F5F5F5"/>
<path id="Vector_128" d="M440.91 250.42H404.07V259.09H440.91V250.42Z" fill="#EBEBEB"/>
<path id="Vector_129" d="M478.59 250.42H441.75V259.09H478.59V250.42Z" fill="#EBEBEB"/>
<path id="Vector_130" d="M516.27 250.42H479.43V259.09H516.27V250.42Z" fill="#F5F5F5"/>
<path id="Vector_131" d="M553.94 250.42H517.1V259.09H553.94V250.42Z" fill="#EBEBEB"/>
<path id="Vector_132" d="M591.62 250.42H554.78V259.09H591.62V250.42Z" fill="#F5F5F5"/>
<path id="Vector_133" d="M629.3 250.42H592.46V259.09H629.3V250.42Z" fill="#EBEBEB"/>
<path id="Vector_134" d="M644.37 250.42C644.37 250.52 539.97 250.6 411.2 250.6C282.43 250.6 178 250.52 178 250.42C178 250.32 282.39 250.24 411.2 250.24C540.01 250.24 644.37 250.32 644.37 250.42Z" fill="#263238"/>
<path id="Vector_135" d="M644.37 259.09C644.37 259.18 539.97 259.26 411.2 259.26C282.43 259.26 178 259.18 178 259.09C178 259 282.39 258.91 411.2 258.91C540.01 258.91 644.37 258.99 644.37 259.09Z" fill="#263238"/>
<path id="Vector_136" d="M215.3 259.04C215.06 256.459 215.06 253.861 215.3 251.28C215.527 253.862 215.527 256.458 215.3 259.04Z" fill="#263238"/>
<path id="Vector_137" d="M253 259.04C252.773 256.458 252.773 253.862 253 251.28C253.24 253.861 253.24 256.459 253 259.04Z" fill="#263238"/>
<path id="Vector_138" d="M290.71 259.04C290.47 256.459 290.47 253.861 290.71 251.28C290.95 253.861 290.95 256.459 290.71 259.04" fill="#263238"/>
<path id="Vector_139" d="M328.42 259.04C328.18 256.459 328.18 253.861 328.42 251.28C328.647 253.862 328.647 256.458 328.42 259.04Z" fill="#263238"/>
<path id="Vector_140" d="M366.12 259.04C365.893 256.458 365.893 253.862 366.12 251.28C366.36 253.861 366.36 256.459 366.12 259.04" fill="#263238"/>
<path id="Vector_141" d="M403.83 259.04C403.59 256.459 403.59 253.861 403.83 251.28C404.07 253.861 404.07 256.459 403.83 259.04Z" fill="#263238"/>
<path id="Vector_142" d="M441.54 259.04C441.3 256.459 441.3 253.861 441.54 251.28C441.767 253.862 441.767 256.458 441.54 259.04Z" fill="#263238"/>
<path id="Vector_143" d="M479.24 259.04C479.013 256.458 479.013 253.862 479.24 251.28C479.48 253.861 479.48 256.459 479.24 259.04Z" fill="#263238"/>
<path id="Vector_144" d="M516.94 259.04C516.7 256.459 516.7 253.861 516.94 251.28C517.18 253.861 517.18 256.459 516.94 259.04Z" fill="#263238"/>
<path id="Vector_145" d="M554.66 259.04C554.42 256.459 554.42 253.861 554.66 251.28C554.887 253.862 554.887 256.458 554.66 259.04Z" fill="#263238"/>
<path id="Vector_146" d="M592.36 259.04C592.133 256.458 592.133 253.862 592.36 251.28C592.6 253.861 592.6 256.459 592.36 259.04" fill="#263238"/>
<path id="Vector_147" d="M630.07 259.04C629.83 256.459 629.83 253.861 630.07 251.28C630.31 253.861 630.31 256.459 630.07 259.04Z" fill="#263238"/>
</g>
<g id="lady_2">
<g id="Lady">
<path id="Vector_148" d="M412.94 134.28C412.81 131.16 414.83 128.36 415.37 125.28C415.98 121.81 414.37 115.8 410.63 113.57C408.118 112.032 405.253 111.168 402.31 111.06C399.526 111.096 396.826 112.017 394.6 113.69C392.704 115.448 391.172 117.562 390.09 119.91C389.357 121.06 388.873 122.351 388.67 123.7C388.584 124.376 388.706 125.062 389.021 125.666C389.335 126.27 389.827 126.763 390.43 127.08C389.613 126.969 388.782 127.03 387.99 127.26C387.599 127.387 387.256 127.632 387.009 127.962C386.762 128.291 386.623 128.689 386.61 129.1C386.67 129.92 387.72 130.57 388.38 130.1C387.104 131.095 386.077 132.374 385.383 133.836C384.688 135.298 384.345 136.902 384.38 138.52C384.538 139.583 384.484 140.668 384.22 141.71C383.49 143.56 381.22 144.12 379.47 145.11C378.672 145.535 377.976 146.129 377.432 146.851C376.888 147.573 376.509 148.406 376.32 149.29C376.157 150.18 376.293 151.1 376.707 151.905C377.122 152.71 377.791 153.355 378.61 153.74C379.61 154.15 380.92 154.1 381.61 154.94C382.3 155.78 382.03 157.09 382.01 158.22C381.986 159.525 382.395 160.802 383.173 161.85C383.951 162.899 385.055 163.66 386.311 164.015C387.568 164.371 388.906 164.3 390.118 163.814C391.33 163.328 392.347 162.455 393.01 161.33C394.16 163.63 397.31 164.43 399.69 163.47C400.855 162.922 401.885 162.123 402.706 161.131C403.528 160.139 404.119 158.977 404.44 157.73C404.971 155.775 405.22 153.755 405.18 151.73C406.917 152.206 408.739 152.284 410.51 151.96C413.46 151.34 416.2 148.96 416.51 145.96C416.96 141.86 413.08 138.4 412.91 134.27L412.94 134.28ZM405.14 135.99V124.99L408.49 121.99L405.14 135.99Z" fill="#263238"/>
<path id="Vector_149" d="M384.54 153.67L384.47 153.74C384.409 153.813 384.339 153.877 384.26 153.93C383.965 154.159 383.624 154.323 383.26 154.41C382.683 154.559 382.077 154.559 381.5 154.41C380.727 154.199 380.054 153.72 379.6 153.06C379.051 152.262 378.774 151.308 378.81 150.34C378.866 149.252 379.249 148.206 379.91 147.34C380.639 146.376 381.571 145.584 382.64 145.02C383.72 144.41 384.91 143.94 386.02 143.3C387.123 142.731 388.042 141.861 388.67 140.79C389.135 139.731 389.327 138.572 389.23 137.42C389.155 136.348 389.155 135.272 389.23 134.2C389.325 133.241 389.67 132.324 390.23 131.54C391.003 130.394 392.147 129.55 393.47 129.15C393.948 128.998 394.449 128.933 394.95 128.96C394.464 129.036 393.983 129.143 393.51 129.28C392.247 129.718 391.164 130.562 390.43 131.68C389.937 132.446 389.642 133.322 389.57 134.23C389.501 135.289 389.501 136.351 389.57 137.41C389.682 138.619 389.486 139.837 389 140.95C388.343 142.082 387.379 143.004 386.22 143.61C385.07 144.27 383.89 144.73 382.83 145.32C381.8 145.856 380.899 146.61 380.19 147.53C379.55 148.356 379.177 149.357 379.12 150.4C379.076 151.309 379.321 152.209 379.82 152.97C380.236 153.596 380.859 154.056 381.58 154.27C382.121 154.435 382.694 154.466 383.25 154.36C383.726 154.247 384.175 154.039 384.57 153.75" fill="#455A64"/>
<path id="Vector_150" d="M365.16 276.21C365.16 275.61 390.83 239.09 390.83 239.09L405 244.53L372.66 281.79L365.16 276.21Z" fill="#FFBE9D"/>
<path id="Vector_151" d="M365.16 276.21L364.93 276.51L360.53 282.26L355.07 286L362.38 300.08H370.38C370.38 300.08 369.8 298.14 365.93 297.14L365.67 289.42L372.67 281.78" fill="#E8505B"/>
<g id="Group" opacity="0.6">
<g id="Group_2" opacity="0.6">
<path id="Vector_152" opacity="0.6" d="M355.07 286L362.38 300.08L370.42 300.09L369.51 298.87L362.97 298.51L356.23 285.21L355.07 286Z" fill="white"/>
</g>
</g>
<path id="Vector_153" d="M365.94 293.61C365.88 293.69 365.42 293.43 364.79 293.45C364.16 293.47 363.72 293.72 363.65 293.64C363.58 293.56 364.03 293.1 364.79 293.09C365.55 293.08 366.01 293.55 365.94 293.61" fill="#263238"/>
<path id="Vector_154" d="M365.79 291.74C365.71 291.79 365.35 291.32 364.71 291.19C364.07 291.06 363.56 291.36 363.51 291.28C363.46 291.2 363.57 291.11 363.8 290.98C364.103 290.823 364.45 290.774 364.785 290.842C365.12 290.909 365.421 291.088 365.64 291.35C365.8 291.55 365.83 291.71 365.79 291.74" fill="#263238"/>
<path id="Vector_155" d="M365.84 289.24C365.76 289.24 365.48 288.81 364.92 288.62C364.36 288.43 363.86 288.62 363.82 288.52C363.78 288.42 363.9 288.37 364.12 288.28C364.418 288.175 364.742 288.175 365.04 288.28C365.338 288.383 365.592 288.584 365.76 288.85C365.88 289.06 365.89 289.21 365.84 289.23" fill="#263238"/>
<path id="Vector_156" d="M368 287.33C367.9 287.33 367.68 286.9 367.18 286.58C366.68 286.26 366.18 286.21 366.18 286.11C366.18 286.01 366.78 285.88 367.38 286.29C367.98 286.7 368.11 287.29 368.01 287.29" fill="#263238"/>
<path id="Vector_157" d="M369.05 285.68C368.775 285.437 368.539 285.154 368.35 284.84L367.67 283.84C367.512 283.645 367.387 283.425 367.3 283.19C367.236 283.033 367.236 282.857 367.3 282.7C367.348 282.615 367.42 282.546 367.508 282.502C367.595 282.457 367.693 282.439 367.79 282.45C368.073 282.503 368.334 282.638 368.54 282.84C368.727 283.001 368.892 283.186 369.03 283.39C369.258 283.743 369.402 284.143 369.45 284.56C369.536 284.933 369.471 285.325 369.27 285.65C369.271 285.299 369.247 284.948 369.2 284.6C369.125 284.24 368.975 283.899 368.76 283.6C368.632 283.423 368.485 283.262 368.32 283.12C368.164 282.971 367.97 282.867 367.76 282.82C367.731 282.817 367.702 282.822 367.675 282.834C367.649 282.846 367.626 282.866 367.61 282.89C367.584 282.964 367.584 283.046 367.61 283.12C367.69 283.319 367.794 283.507 367.92 283.68C368.13 284.02 368.33 284.36 368.54 284.68C368.757 284.984 368.923 285.322 369.03 285.68" fill="#263238"/>
<path id="Vector_158" d="M369.34 285.92C369.34 285.92 369.34 285.49 369.77 285.01C370.065 284.688 370.458 284.472 370.888 284.394C371.317 284.317 371.761 284.382 372.15 284.58C372.19 284.617 372.222 284.662 372.244 284.712C372.267 284.762 372.279 284.815 372.28 284.87C372.269 284.961 372.235 285.047 372.18 285.12C372.1 285.221 372.002 285.306 371.89 285.37C371.711 285.498 371.52 285.609 371.32 285.7C370.984 285.853 370.627 285.95 370.26 285.99C369.926 286.068 369.575 286.037 369.26 285.9C369.574 285.832 369.891 285.782 370.21 285.75C370.557 285.681 370.893 285.567 371.21 285.41C371.389 285.318 371.559 285.211 371.72 285.09C371.798 285.04 371.869 284.979 371.93 284.91C371.93 284.84 371.93 284.86 371.93 284.84C371.86 284.796 371.782 284.765 371.7 284.75C371.6 284.74 371.5 284.74 371.4 284.75C371.211 284.72 371.019 284.72 370.83 284.75C370.507 284.82 370.208 284.971 369.96 285.19C369.53 285.57 369.41 285.94 369.36 285.92" fill="#263238"/>
<g id="Group_3" opacity="0.6">
<g id="Group_4" opacity="0.6">
<path id="Vector_159" opacity="0.6" d="M361.49 285.74C361.5 285.94 361.45 286.138 361.346 286.309C361.243 286.479 361.09 286.615 360.909 286.699C360.727 286.782 360.525 286.809 360.327 286.776C360.13 286.744 359.947 286.653 359.802 286.515C359.658 286.377 359.557 286.199 359.514 286.004C359.472 285.809 359.488 285.605 359.562 285.42C359.636 285.234 359.764 285.075 359.93 284.963C360.095 284.85 360.29 284.79 360.49 284.79C360.747 284.79 360.994 284.888 361.18 285.065C361.366 285.242 361.477 285.484 361.49 285.74Z" fill="white"/>
</g>
</g>
<path id="Vector_160" d="M411.27 241.72L431.31 285.4H441.67L427.71 240.34L411.27 241.72Z" fill="#FFBE9D"/>
<path id="Vector_161" d="M431.09 284.85L437.15 300.45L456.58 293.01C455.76 291.2 444.28 291.32 444.28 291.32L440.81 281.17L431.09 284.85Z" fill="#E8505B"/>
<g id="Group_5" opacity="0.6">
<g id="Group_6" opacity="0.6">
<path id="Vector_162" opacity="0.6" d="M437.94 292.74C437.774 292.869 437.662 293.054 437.623 293.26C437.584 293.467 437.622 293.68 437.73 293.86C437.853 294.031 438.036 294.148 438.243 294.187C438.45 294.226 438.663 294.184 438.84 294.07C439.012 293.932 439.128 293.736 439.167 293.519C439.205 293.302 439.164 293.079 439.05 292.89C438.904 292.725 438.698 292.623 438.478 292.606C438.258 292.589 438.04 292.659 437.87 292.8" fill="white"/>
</g>
</g>
<g id="Group_7" opacity="0.6">
<g id="Group_8" opacity="0.6">
<path id="Vector_163" opacity="0.6" d="M437.15 300.45L436.6 298.85L455.44 292.32C455.44 292.32 456.44 292.37 456.58 293.01L437.15 300.45Z" fill="white"/>
</g>
</g>
<path id="Vector_164" d="M444.56 291.1C444.56 291.19 444.13 291.42 443.78 291.9C443.43 292.38 443.33 292.9 443.23 292.9C443.13 292.9 443.06 292.29 443.5 291.71C443.94 291.13 444.5 291.02 444.56 291.12" fill="#263238"/>
<path id="Vector_165" d="M446.94 291.16C446.94 291.25 446.64 291.56 446.48 292.09C446.32 292.62 446.38 293.09 446.28 293.09C446.18 293.09 445.92 292.6 446.14 291.96C446.36 291.32 446.9 291.05 446.94 291.14" fill="#263238"/>
<path id="Vector_166" d="M449.01 293.16C448.93 293.21 448.62 292.79 448.66 292.16C448.7 291.53 449.07 291.16 449.14 291.23C449.21 291.3 449.04 291.68 449.01 292.18C448.98 292.68 449.1 293.09 449.01 293.18" fill="#263238"/>
<path id="Vector_167" d="M443.51 288.87C443.51 288.97 443.02 289.01 442.51 289.25C442 289.49 441.64 289.82 441.56 289.76C441.48 289.7 441.75 289.21 442.37 288.93C442.99 288.65 443.55 288.78 443.53 288.87" fill="#263238"/>
<path id="Vector_168" d="M442.16 286.74C442.16 286.74 441.83 286.98 441.16 287.11C440.784 287.18 440.402 287.207 440.02 287.19C439.795 287.179 439.57 287.149 439.35 287.1C439.218 287.083 439.09 287.046 438.97 286.99C438.881 286.947 438.808 286.876 438.765 286.787C438.721 286.698 438.709 286.597 438.73 286.5C438.751 286.415 438.792 286.336 438.849 286.27C438.906 286.204 438.979 286.152 439.06 286.12C439.186 286.073 439.317 286.043 439.45 286.03C439.676 286.01 439.904 286.01 440.13 286.03C440.514 286.055 440.892 286.139 441.25 286.28C441.594 286.378 441.9 286.576 442.13 286.85C442.13 286.9 441.76 286.68 441.13 286.51C440.788 286.414 440.435 286.363 440.08 286.36C439.87 286.341 439.66 286.341 439.45 286.36C439.23 286.36 439.05 286.45 439.03 286.56C439.01 286.67 439.03 286.62 439.1 286.66C439.188 286.703 439.283 286.73 439.38 286.74C439.584 286.787 439.791 286.821 440 286.84C440.359 286.875 440.721 286.875 441.08 286.84C441.411 286.783 441.745 286.743 442.08 286.72" fill="#263238"/>
<path id="Vector_169" d="M442.09 286.93C442.09 286.93 441.75 286.69 441.48 286.08C441.319 285.73 441.224 285.354 441.2 284.97C441.18 284.74 441.18 284.51 441.2 284.28C441.205 284.131 441.247 283.985 441.325 283.857C441.402 283.73 441.51 283.624 441.64 283.55C441.728 283.52 441.822 283.515 441.912 283.536C442.003 283.557 442.085 283.604 442.15 283.67C442.243 283.764 442.32 283.872 442.38 283.99C442.502 284.19 442.587 284.41 442.63 284.64C442.727 285.024 442.727 285.426 442.63 285.81C442.45 286.46 442.09 286.72 442.07 286.69C442.196 286.383 442.303 286.07 442.39 285.75C442.459 285.42 442.459 285.08 442.39 284.75C442.338 284.553 442.257 284.364 442.15 284.19C442.04 284 441.9 283.86 441.83 283.91C441.766 283.966 441.714 284.036 441.678 284.113C441.642 284.19 441.622 284.275 441.62 284.36C441.595 284.566 441.595 284.774 441.62 284.98C441.63 285.32 441.69 285.658 441.8 285.98C441.99 286.57 442.23 286.88 442.18 286.92" fill="#263238"/>
<path id="Vector_170" d="M437.51 201.15L437.67 201.34C437.96 201.41 438.28 201.47 438.67 201.53C439.2 201.62 439.74 201.62 440.27 201.53C440.936 201.437 441.585 201.252 442.2 200.98C442.73 200.68 443.36 201.18 443.13 201.69C442.9 202.2 441.45 203.08 439.47 203.25C437.49 203.42 440.07 205.17 441 205.83C441.93 206.49 444.71 208.65 444.73 209.1C444.73 209.75 444.08 209.91 443.16 209.23C442.24 208.55 439.37 206.72 439.05 207.23C438.73 207.74 443.51 211.01 443.51 211.01C443.51 211.01 444.64 211.55 444.29 212.15C443.65 213.23 438.83 209.37 438.38 208.99C437.93 208.61 437.7 209.26 438.05 209.53C438.4 209.8 442.88 212.69 442.24 213.79C441.75 214.64 438.24 210.66 436.99 210.57C435.74 210.48 439.99 213.33 439.45 214.12C439.26 214.41 439.08 214.61 436.89 212.63C435.126 210.874 433.457 209.024 431.89 207.09L437.51 201.15Z" fill="#FFBE9D"/>
<path id="Vector_171" d="M414 148.65L421.5 186.73L438.29 200.69L431.76 208.62L408.79 190.31L404.11 152.27L414 148.65Z" fill="#E8505B"/>
<g id="Group_9" opacity="0.3">
<g id="Group_10" opacity="0.3">
<path id="Vector_172" opacity="0.3" d="M414 148.65L421.5 186.73L438.29 200.69L431.76 208.62L408.79 190.31L404.11 152.27L414 148.65Z" fill="black"/>
</g>
</g>
<path id="Vector_173" d="M415.77 184.87L414.77 184.71C415.08 180.71 415.66 176.28 417.61 173.35C418.798 171.8 419.378 169.868 419.24 167.92C419.65 163.63 416.24 160.92 415.72 156.61C415.18 150.32 415.21 146.84 412.47 146.14L399.47 143.77C399.47 143.77 384.38 141.58 387.88 160.3L394.63 181.58L396.85 183.02C393.78 185.3 386.85 191.78 384.78 205.23C382.04 222.71 373.2 261.12 373.2 261.12C373.2 261.12 386.13 255.12 397.62 261.12C409.11 267.12 421.77 269.59 429.38 266.04C436.99 262.49 437.02 261.12 437.02 261.12L415.77 184.87Z" fill="#E8505B"/>
<path id="Vector_174" d="M393.13 187.88L393.03 188.03L392.7 188.45C392.4 188.82 391.99 189.39 391.5 190.13C390.159 192.27 389.148 194.599 388.5 197.04C387.564 200.672 387.106 204.41 387.14 208.16C387.08 212.4 387.45 217.05 387.45 221.96C387.494 226.584 386.878 231.19 385.62 235.64C384.57 239.258 383.263 242.797 381.71 246.23C380.4 249.16 379.24 251.49 378.44 253.09L377.5 254.93L377.24 255.41C377.218 255.465 377.188 255.515 377.15 255.56C377.15 255.56 377.15 255.5 377.21 255.39L377.43 254.9C377.65 254.45 377.94 253.82 378.31 253.03C379.08 251.41 380.2 249.03 381.48 246.13C382.997 242.7 384.273 239.168 385.3 235.56C386.527 231.132 387.129 226.555 387.09 221.96C387.09 217.07 386.74 212.41 386.81 208.16C386.793 204.382 387.28 200.619 388.26 196.97C388.938 194.515 389.994 192.18 391.39 190.05C391.908 189.276 392.493 188.55 393.14 187.88" fill="#263238"/>
<path id="Vector_175" d="M434.09 249.63C432.947 249.364 431.761 249.343 430.61 249.57C429.267 249.862 427.979 250.361 426.79 251.05C425.222 251.986 423.706 253.007 422.25 254.11C420.471 255.484 418.429 256.478 416.25 257.03C414.284 257.399 412.253 257.214 410.385 256.497C408.517 255.781 406.885 254.56 405.67 252.97C404.766 251.817 404.214 250.429 404.08 248.97C404.019 248.202 404.153 247.432 404.47 246.73C404.796 246.008 405.352 245.414 406.05 245.04C406.76 244.659 407.574 244.519 408.37 244.64C409.178 244.767 409.919 245.166 410.47 245.77C411.045 246.356 411.398 247.123 411.47 247.94C411.529 248.736 411.355 249.531 410.97 250.23C410.224 251.585 409.007 252.621 407.55 253.14C406.172 253.639 404.699 253.824 403.24 253.68C401.849 253.541 400.486 253.204 399.19 252.68C396.849 251.662 394.595 250.455 392.45 249.07C390.574 247.889 388.558 246.945 386.45 246.26C384.723 245.689 382.881 245.555 381.09 245.87C379.744 246.134 378.484 246.725 377.42 247.59C376.743 248.138 376.185 248.819 375.78 249.59C375.5 250.12 375.43 250.43 375.4 250.42C375.419 250.342 375.442 250.265 375.47 250.19C375.53 249.971 375.614 249.76 375.72 249.56C376.105 248.764 376.653 248.059 377.33 247.49C378.402 246.592 379.68 245.973 381.05 245.69C382.876 245.343 384.761 245.46 386.53 246.03C388.636 246.716 390.651 247.657 392.53 248.83C394.669 250.192 396.913 251.382 399.24 252.39C400.524 252.885 401.87 253.198 403.24 253.32C404.649 253.463 406.072 253.282 407.4 252.79C408.774 252.3 409.922 251.326 410.63 250.05C410.981 249.408 411.14 248.68 411.09 247.95C411.04 247.199 410.725 246.49 410.2 245.95C409.7 245.414 409.034 245.062 408.31 244.95C407.589 244.84 406.853 244.967 406.21 245.31C405.573 245.646 405.067 246.184 404.77 246.84C404.479 247.489 404.359 248.201 404.42 248.91C404.546 250.307 405.074 251.637 405.94 252.74C406.751 253.822 407.771 254.73 408.94 255.41C411.117 256.704 413.689 257.166 416.18 256.71C418.316 256.175 420.321 255.208 422.07 253.87C423.541 252.788 425.07 251.787 426.65 250.87C427.869 250.194 429.184 249.708 430.55 249.43C431.417 249.285 432.303 249.285 433.17 249.43C433.471 249.473 433.766 249.55 434.05 249.66" fill="#EBEBEB"/>
<g id="Group_11" opacity="0.3">
<g id="Group_12" opacity="0.3">
<path id="Vector_176" opacity="0.3" d="M386.81 222.09C390.66 221.76 394.69 221.09 397.71 218.73C399.962 216.792 401.611 214.248 402.46 211.4C403.901 207.111 404.2 202.52 403.33 198.08C403.08 196.82 402.75 195.42 403.41 194.31C404.07 193.2 405.64 192.78 407 192.76C408.73 192.76 410.44 193.09 412.16 193.04C413.024 193.066 413.882 192.899 414.674 192.554C415.466 192.208 416.172 191.691 416.74 191.04L398.94 189.32C397.39 189.17 395.71 189.05 394.4 189.89C393.09 190.73 392.48 192.41 392 193.89L387.68 207.49C386.86 209.843 386.277 212.271 385.94 214.74C385.584 217.2 385.959 219.711 387.02 221.96" fill="black"/>
</g>
</g>
<path id="Vector_177" d="M383.68 185.62C380.09 188.55 376.13 193.7 373.42 197.46C370.71 201.22 369 205.93 369.76 210.46C370.286 213.155 371.566 215.646 373.451 217.643C375.336 219.64 377.749 221.06 380.41 221.74C383.085 222.346 385.868 222.284 388.513 221.56C391.159 220.836 393.586 219.473 395.58 217.59C397.543 215.675 399.084 213.371 400.105 210.826C401.126 208.281 401.605 205.551 401.51 202.81C401.33 195.73 397.67 188.99 398.12 181.92C398.449 177.139 399.188 172.395 400.33 167.74C401.828 160.131 400.551 152.238 396.73 145.49C396.249 144.514 395.482 143.708 394.53 143.18C393.53 142.74 394.21 143.44 393.81 144.45C393.41 145.46 394.26 146.66 394.98 147.59C397.72 151.14 398.76 155.79 398.66 160.28C398.409 164.767 397.582 169.204 396.2 173.48C395.2 176.83 394.2 180.23 392.14 183.05C390.08 185.87 387.14 185.8 383.68 185.65" fill="#455A64"/>
<path id="Vector_178" d="M393.55 188.21C393.55 188.21 393.55 188.31 393.49 188.51C393.43 188.71 393.36 189 393.23 189.36C392.872 190.397 392.423 191.401 391.89 192.36C390.119 195.542 387.547 198.207 384.43 200.09C382.757 201.23 380.785 201.852 378.76 201.88C377.925 201.875 377.104 201.665 376.37 201.267C375.635 200.869 375.01 200.297 374.55 199.6C374.267 199.114 374.094 198.572 374.044 198.012C373.994 197.452 374.068 196.888 374.26 196.36C374.376 196.083 374.531 195.824 374.72 195.59C374.87 195.44 374.94 195.37 374.95 195.38C374.721 195.688 374.533 196.024 374.39 196.38C374.231 196.887 374.182 197.422 374.246 197.95C374.31 198.477 374.485 198.985 374.76 199.44C375.209 200.084 375.808 200.61 376.504 200.972C377.201 201.334 377.975 201.522 378.76 201.52C380.715 201.475 382.616 200.864 384.23 199.76C387.298 197.902 389.85 195.303 391.65 192.2C392.195 191.265 392.673 190.293 393.08 189.29C393.21 188.912 393.36 188.542 393.53 188.18" fill="#263238"/>
<path id="Vector_179" d="M378.8 200.05C378.98 199.933 379.18 199.852 379.39 199.81C379.633 199.733 379.885 199.692 380.14 199.69C380.507 199.677 380.865 199.806 381.14 200.05C381.294 200.204 381.415 200.388 381.494 200.592C381.573 200.795 381.609 201.012 381.6 201.23C381.578 201.721 381.411 202.194 381.12 202.59C380.818 202.997 380.484 203.378 380.12 203.73C379.721 204.131 379.249 204.454 378.73 204.68C378.454 204.787 378.16 204.837 377.864 204.827C377.568 204.817 377.278 204.746 377.01 204.62C376.757 204.49 376.546 204.292 376.401 204.048C376.256 203.804 376.183 203.524 376.19 203.24C376.198 202.754 376.332 202.278 376.58 201.86C376.773 201.495 377.015 201.159 377.3 200.86C377.707 200.433 378.197 200.093 378.74 199.86C378.929 199.76 379.137 199.698 379.35 199.68C378.651 200.014 378.017 200.471 377.48 201.03C376.902 201.621 376.548 202.396 376.48 203.22C376.474 203.443 376.532 203.664 376.647 203.855C376.762 204.046 376.93 204.201 377.13 204.3C377.356 204.397 377.599 204.446 377.845 204.446C378.091 204.446 378.334 204.397 378.56 204.3C379.039 204.096 379.474 203.801 379.84 203.43C380.204 203.1 380.539 202.739 380.84 202.35C381.106 202.011 381.266 201.6 381.3 201.17C381.313 200.989 381.289 200.807 381.231 200.636C381.173 200.464 381.08 200.306 380.96 200.17C380.747 200.003 380.496 199.89 380.23 199.84C379.964 199.789 379.69 199.803 379.43 199.88C379.228 199.941 379.02 199.978 378.81 199.99" fill="#263238"/>
<path id="Vector_180" d="M391.94 220.29C391.94 220.29 392.05 219.97 392.15 219.39C392.288 218.571 392.208 217.729 391.92 216.95C391.718 216.417 391.416 215.928 391.03 215.51C390.576 215.059 390.025 214.717 389.42 214.51C387.962 214.089 386.433 213.98 384.93 214.19C382.162 214.411 379.443 215.055 376.87 216.1C375.87 216.51 375.1 216.89 374.57 217.15C374.298 217.307 374.014 217.441 373.72 217.55C373.963 217.352 374.224 217.178 374.5 217.03C375.234 216.601 375.992 216.214 376.77 215.87C379.35 214.755 382.098 214.079 384.9 213.87C386.453 213.662 388.032 213.791 389.53 214.25C390.185 214.489 390.774 214.88 391.25 215.39C391.647 215.844 391.953 216.37 392.15 216.94C392.432 217.764 392.48 218.65 392.29 219.5C392.233 219.726 392.156 219.947 392.06 220.16C391.99 220.3 391.95 220.38 391.94 220.37" fill="#263238"/>
<path id="Vector_181" d="M392.55 212.12C392.355 212.696 392.017 213.212 391.567 213.622C391.118 214.031 390.571 214.319 389.98 214.46C389.98 214.36 390.63 214 391.33 213.36C392.03 212.72 392.46 212.07 392.55 212.12" fill="#263238"/>
<path id="Vector_182" d="M393.54 213.63C393.62 213.63 393.19 214.39 392.29 214.78C392.035 214.929 391.751 215.02 391.457 215.045C391.163 215.071 390.867 215.032 390.59 214.93C390.59 214.83 391.34 214.83 392.14 214.46C392.94 214.09 393.46 213.56 393.54 213.63Z" fill="#263238"/>
<path id="Vector_183" d="M372.53 215.38C372.62 215.38 372.89 215.79 373.35 216.19C373.81 216.59 374.29 216.81 374.27 216.91C374.25 217.01 373.65 216.91 373.12 216.46C372.59 216.01 372.44 215.41 372.53 215.38" fill="#263238"/>
<path id="Vector_184" d="M386.3 204.83C386.494 204.197 386.795 203.602 387.19 203.07C387.492 202.479 387.895 201.944 388.38 201.49C387.896 202.721 387.191 203.853 386.3 204.83" fill="#EBEBEB"/>
<path id="Vector_185" d="M394.41 207.55C394.35 207.63 393.71 207.16 393.17 206.37C392.79 205.924 392.556 205.373 392.5 204.79C392.6 204.79 392.94 205.42 393.5 206.17C394.06 206.92 394.5 207.48 394.5 207.55" fill="#EBEBEB"/>
<path id="Vector_186" d="M396.52 198.84C396.58 198.92 396.09 199.38 395.42 199.84C394.75 200.3 394.16 200.66 394.11 200.58C394.06 200.5 394.54 200.04 395.21 199.58C395.88 199.12 396.47 198.76 396.52 198.84Z" fill="#EBEBEB"/>
<path id="Vector_187" d="M395.33 193.68C395.23 193.68 395.09 193.2 395 192.58C394.91 191.96 394.92 191.44 395 191.43C395.08 191.42 395.25 191.91 395.33 192.53C395.41 193.15 395.41 193.67 395.33 193.68Z" fill="#EBEBEB"/>
<path id="Vector_188" d="M399.1 206.47C399 206.47 399.05 205.81 399.2 205.04C399.245 204.558 399.399 204.093 399.65 203.68C399.75 203.68 399.7 204.34 399.55 205.11C399.512 205.593 399.358 206.06 399.1 206.47" fill="#EBEBEB"/>
<path id="Vector_189" d="M384.86 212.14C384.8 212.22 384.31 211.99 383.86 211.52C383.41 211.05 383.16 210.57 383.24 210.52C383.32 210.47 383.67 210.83 384.11 211.27C384.55 211.71 384.92 212.06 384.87 212.14" fill="#EBEBEB"/>
<path id="Vector_190" d="M376.01 213.22C375.605 213.54 375.133 213.765 374.63 213.88C373.83 214.16 373.16 214.31 373.13 214.21C373.535 213.89 374.007 213.665 374.51 213.55C374.98 213.333 375.492 213.22 376.01 213.22" fill="#EBEBEB"/>
<path id="Vector_191" d="M374.3 209.36C374.22 209.42 373.64 208.89 373 208.16C372.58 207.751 372.24 207.265 372 206.73C372.08 206.66 372.66 207.2 373.3 207.92C373.724 208.33 374.064 208.819 374.3 209.36" fill="#EBEBEB"/>
<path id="Vector_192" d="M372.79 202.1C372.72 202.03 373.01 201.59 373.45 201.1C373.89 200.61 374.3 200.28 374.37 200.34C374.44 200.4 374.15 200.86 373.71 201.34C373.27 201.82 372.86 202.17 372.79 202.1Z" fill="#EBEBEB"/>
<path id="Vector_193" d="M381.23 205.51C381.23 205.6 380.66 205.99 379.86 206.39C379.395 206.675 378.879 206.865 378.34 206.95C378.34 206.86 378.91 206.47 379.7 206.07C380.162 205.773 380.685 205.581 381.23 205.51Z" fill="#EBEBEB"/>
<path id="Vector_194" d="M379.81 196.86C379.497 196.356 379.315 195.782 379.28 195.19C379.134 194.619 379.134 194.021 379.28 193.45C379.485 193.992 379.606 194.562 379.64 195.14C379.791 195.7 379.852 196.281 379.82 196.86" fill="#EBEBEB"/>
<path id="Vector_195" d="M385.55 194.54C385.46 194.54 385.16 194.08 384.89 193.44C384.62 192.8 384.46 192.24 384.55 192.2C384.64 192.16 384.94 192.65 385.21 193.3C385.48 193.95 385.64 194.5 385.55 194.54Z" fill="#EBEBEB"/>
<path id="Vector_196" d="M389.83 190.12C389.421 190.501 388.888 190.721 388.33 190.74C387.79 190.88 387.218 190.82 386.72 190.57C387.235 190.472 387.756 190.411 388.28 190.39C388.79 190.264 389.308 190.174 389.83 190.12" fill="#EBEBEB"/>
<path id="Vector_197" d="M395.41 214.55C395.32 214.55 395.49 213.92 395.88 213.29C396.27 212.66 396.73 212.24 396.8 212.29C396.87 212.34 396.56 212.85 396.18 213.46C395.8 214.07 395.5 214.58 395.41 214.54" fill="#EBEBEB"/>
<path id="Vector_198" d="M381.66 220.17C381.61 220.25 381.07 220.04 380.45 219.7C379.83 219.36 379.36 219.01 379.45 218.93C379.54 218.85 380.04 219.05 380.66 219.39C381.28 219.73 381.74 220.08 381.66 220.17Z" fill="#EBEBEB"/>
<path id="Vector_199" d="M385.55 219.43C385.47 219.37 385.73 218.94 386.01 218.43C386.29 217.92 386.48 217.43 386.58 217.43C386.68 217.43 386.58 217.98 386.32 218.56C386.06 219.14 385.62 219.5 385.55 219.43Z" fill="#EBEBEB"/>
<path id="Vector_200" d="M397.82 174.1C397.9 174.16 397.63 174.68 397.21 175.25C396.79 175.82 396.39 176.25 396.32 176.25C396.25 176.25 396.51 175.68 396.93 175.1C397.35 174.52 397.74 174.1 397.82 174.15" fill="#EBEBEB"/>
<path id="Vector_201" d="M398.58 170.4C398.49 170.4 398.51 169.83 398.63 169.17C398.75 168.51 398.93 167.98 399.03 167.99C399.13 168 399.1 168.57 399.03 169.23C398.96 169.89 398.73 170.42 398.63 170.4" fill="#EBEBEB"/>
<path id="Vector_202" d="M399.6 162.64C399.5 162.64 399.53 162.25 399.6 161.83C399.67 161.41 399.89 161.08 399.99 161.11C400.09 161.14 400.06 161.5 399.94 161.93C399.82 162.36 399.64 162.67 399.55 162.64" fill="#EBEBEB"/>
<path id="Vector_203" d="M399.58 157.74C399.48 157.74 399.4 157.55 399.4 157.3C399.4 157.05 399.48 156.87 399.58 156.87C399.68 156.87 399.75 157.06 399.75 157.3C399.75 157.54 399.67 157.74 399.58 157.74Z" fill="#EBEBEB"/>
<path id="Vector_204" d="M411.87 117.21V116.74C405.66 114.89 398.31 114.97 394.53 120.16L397.32 145.16C397.5 148.65 400.38 153.51 404.13 156.44C404.721 156.905 405.437 157.184 406.186 157.243C406.936 157.302 407.686 157.138 408.343 156.771C409 156.404 409.533 155.851 409.876 155.182C410.219 154.513 410.356 153.757 410.27 153.01C409.95 150.33 409.62 147.38 409.45 145.45C409.432 145.271 409.388 145.096 409.32 144.93C409.32 144.88 409.32 144.84 409.32 144.79C409.01 141.57 408.75 138.17 408.75 138.17C408.75 138.17 412.83 137.08 413.16 131.58C413.47 126.34 411.88 117.21 411.88 117.21" fill="#FFBE9D"/>
<path id="Vector_205" d="M411.87 123.84C411.89 124.021 411.838 124.203 411.726 124.347C411.614 124.491 411.451 124.585 411.27 124.61C411.182 124.626 411.092 124.624 411.004 124.604C410.917 124.584 410.835 124.547 410.762 124.495C410.689 124.442 410.628 124.376 410.581 124.3C410.534 124.223 410.503 124.139 410.49 124.05C410.47 123.87 410.522 123.689 410.634 123.547C410.747 123.405 410.91 123.313 411.09 123.29C411.177 123.274 411.267 123.276 411.354 123.295C411.44 123.314 411.523 123.351 411.595 123.402C411.668 123.453 411.729 123.518 411.777 123.593C411.824 123.669 411.856 123.752 411.87 123.84" fill="#263238"/>
<path id="Vector_206" d="M411.87 123.08C411.79 123.18 411.22 122.84 410.48 122.91C409.74 122.98 409.22 123.42 409.13 123.33C409.04 123.24 409.13 123.13 409.38 122.93C409.678 122.676 410.047 122.519 410.437 122.482C410.827 122.444 411.219 122.527 411.56 122.72C411.81 122.88 411.9 123.03 411.87 123.08Z" fill="#263238"/>
<path id="Vector_207" d="M404.1 124.85C404.12 125.031 404.068 125.213 403.956 125.357C403.844 125.501 403.681 125.595 403.5 125.62C403.322 125.649 403.14 125.606 402.994 125.501C402.848 125.396 402.749 125.238 402.72 125.06C402.703 124.879 402.755 124.699 402.867 124.556C402.978 124.412 403.141 124.317 403.32 124.29C403.498 124.261 403.68 124.304 403.826 124.409C403.972 124.514 404.071 124.672 404.1 124.85" fill="#263238"/>
<path id="Vector_208" d="M404.1 124.12C404.02 124.22 403.46 123.88 402.71 123.95C401.96 124.02 401.45 124.46 401.36 124.37C401.27 124.28 401.36 124.16 401.61 123.97C401.91 123.715 402.28 123.558 402.672 123.52C403.064 123.483 403.457 123.566 403.8 123.76C404.04 123.92 404.14 124.07 404.1 124.12Z" fill="#263238"/>
<path id="Vector_209" d="M407.36 129.39C407.74 129.226 408.14 129.112 408.55 129.05C408.74 129.05 408.91 128.95 408.93 128.82C408.926 128.623 408.863 128.432 408.75 128.27C408.52 127.83 408.29 127.36 408.04 126.87C407.394 125.693 406.846 124.466 406.4 123.2C407.14 124.321 407.785 125.502 408.33 126.73L409.02 128.14C409.161 128.359 409.221 128.621 409.19 128.88C409.167 128.95 409.13 129.014 409.08 129.067C409.029 129.121 408.968 129.163 408.9 129.19C408.798 129.231 408.69 129.254 408.58 129.26C408.18 129.353 407.77 129.397 407.36 129.39" fill="#263238"/>
<path id="Vector_210" d="M408.74 138.17C406.195 138.464 403.618 138.041 401.3 136.95C401.3 136.95 403.43 140.5 408.79 139.46L408.74 138.17Z" fill="#EB996E"/>
<path id="Vector_211" d="M407.22 131.22C407.06 131.054 406.86 130.933 406.639 130.866C406.419 130.8 406.185 130.791 405.96 130.84C405.796 130.869 405.64 130.931 405.502 131.024C405.364 131.118 405.248 131.239 405.16 131.38C405.066 131.51 405.016 131.665 405.016 131.825C405.016 131.985 405.066 132.14 405.16 132.27C405.291 132.395 405.457 132.476 405.636 132.503C405.815 132.53 405.998 132.501 406.16 132.42C406.502 132.264 406.808 132.039 407.06 131.76C407.137 131.692 407.201 131.61 407.25 131.52C407.277 131.478 407.291 131.43 407.291 131.38C407.291 131.33 407.277 131.282 407.25 131.24" fill="#EB996E"/>
<path id="Vector_212" d="M405.21 130.12C405.33 130.12 405.41 130.91 406.21 131.42C407.01 131.93 407.82 131.75 407.83 131.86C407.84 131.97 407.66 132.04 407.29 132.09C406.813 132.131 406.337 132.008 405.94 131.74C405.559 131.488 405.293 131.097 405.2 130.65C405.13 130.31 405.2 130.1 405.26 130.1" fill="#263238"/>
<path id="Vector_213" d="M411.2 136.67C411.252 136.793 411.296 136.92 411.33 137.05C411.4 137.29 411.5 137.66 411.62 138.13C411.961 139.472 412.089 140.859 412 142.24C411.976 143.195 411.889 144.147 411.74 145.09C411.657 145.619 411.52 146.139 411.33 146.64C411.089 147.157 410.822 147.66 410.53 148.15C410.25 148.696 409.858 149.176 409.38 149.56C408.821 149.897 408.171 150.051 407.52 150C406.866 149.998 406.216 149.9 405.59 149.71C404.948 149.52 404.33 149.255 403.75 148.92C402.582 148.285 401.605 147.35 400.92 146.21C400.62 145.654 400.426 145.047 400.35 144.42C400.22 143.83 400.09 143.26 399.95 142.7C399.68 141.59 399.46 140.5 399.3 139.5C399.14 138.5 398.98 137.55 398.84 136.69C398.57 135.01 398.35 133.63 398.19 132.62C398.13 132.17 398.08 131.81 398.03 131.52C398.017 131.387 398.017 131.253 398.03 131.12C398.086 131.24 398.123 131.368 398.14 131.5C398.19 131.79 398.27 132.16 398.36 132.6C398.55 133.6 398.8 134.97 399.12 136.6C399.27 137.46 399.44 138.39 399.62 139.4C399.8 140.41 400.01 141.46 400.3 142.58C400.44 143.14 400.58 143.71 400.71 144.3C400.78 144.893 400.963 145.466 401.25 145.99C401.909 147.072 402.845 147.959 403.96 148.56C404.513 148.885 405.104 149.14 405.72 149.32C406.313 149.502 406.93 149.596 407.55 149.6C408.132 149.657 408.717 149.527 409.22 149.23C409.657 148.872 410.017 148.43 410.28 147.93C410.56 147.44 410.86 146.93 411.07 146.48C411.259 145.996 411.396 145.493 411.48 144.98C411.642 144.054 411.743 143.119 411.78 142.18C411.889 140.817 411.798 139.446 411.51 138.11L411.29 137.01C411.256 136.883 411.235 136.752 411.23 136.62" fill="#EBEBEB"/>
<path id="Vector_214" d="M425.25 175.95L423.19 193.4H434.37L435.92 175.98L425.25 175.95Z" fill="#263238"/>
<path id="Vector_215" d="M428.94 193.95C428.956 194.23 428.956 194.51 428.94 194.79C428.903 195.587 428.956 196.385 429.1 197.17C429.375 198.409 429.533 199.671 429.57 200.94C429.61 202.644 429.225 204.332 428.45 205.85C427.969 206.739 427.284 207.5 426.45 208.07C425.561 208.673 424.523 209.019 423.45 209.07C422.268 209.146 421.102 208.759 420.2 207.99C419.328 207.111 418.733 205.994 418.49 204.78C418.18 203.57 418.02 202.31 417.64 201.1C417.234 199.864 416.629 198.702 415.85 197.66C414.33 195.5 412.27 193.49 411.19 190.78C410.236 188.151 409.791 185.365 409.88 182.57C409.88 179.88 409.96 177.3 409.83 174.84C409.58 169.93 408.78 165.55 408.32 161.84C407.899 158.922 407.695 155.978 407.71 153.03C407.71 152.03 407.76 151.18 407.81 150.63C407.81 150.37 407.81 150.17 407.81 150.01V149.8C407.821 149.87 407.821 149.94 407.81 150.01C407.81 150.17 407.81 150.38 407.81 150.64C407.81 151.18 407.76 151.99 407.81 153.03C407.849 155.969 408.086 158.903 408.52 161.81C409.02 165.5 409.85 169.88 410.11 174.81C410.26 177.27 410.16 179.87 410.18 182.54C410.104 185.294 410.545 188.038 411.48 190.63C412.48 193.26 414.54 195.24 416.09 197.44C416.886 198.516 417.507 199.711 417.93 200.98C418.31 202.23 418.47 203.49 418.77 204.67C418.99 205.828 419.547 206.896 420.37 207.74C421.204 208.447 422.279 208.805 423.37 208.74C424.405 208.69 425.407 208.362 426.27 207.79C427.052 207.235 427.698 206.51 428.16 205.67C428.929 204.192 429.321 202.546 429.3 200.88C429.282 199.62 429.145 198.364 428.89 197.13C428.762 196.333 428.732 195.524 428.8 194.72C428.8 194.45 428.8 194.24 428.87 194.1C428.866 194.03 428.866 193.96 428.87 193.89" fill="#EBEBEB"/>
<path id="Vector_216" d="M428.42 193.4L428.32 194.78C428.325 194.901 428.373 195.017 428.455 195.106C428.537 195.195 428.648 195.252 428.769 195.266C428.889 195.281 429.011 195.252 429.112 195.185C429.213 195.118 429.287 195.017 429.32 194.9L429.54 193.4H428.42Z" fill="#EBEBEB"/>
<path id="Vector_217" d="M394.53 144.23C397.23 144.33 397.06 146.89 397.35 149.58C397.657 152.677 397.717 155.793 397.53 158.9C397.06 168.11 392.9 176.9 392.9 176.9L419.33 180.85L418.33 191.02L384.94 187.45C383.779 187.326 382.659 186.947 381.662 186.339C380.664 185.732 379.814 184.911 379.17 183.937C378.527 182.962 378.108 181.857 377.942 180.701C377.776 179.545 377.867 178.366 378.21 177.25C381.21 167.54 386.08 153.54 387.21 151.25C388.69 148.12 391.01 144.12 394.58 144.25" fill="#E8505B"/>
<path id="Vector_218" d="M383.68 187.21H383.85L384.35 187.28L386.29 187.57C387.98 187.81 390.44 188.15 393.53 188.51C399.71 189.24 408.39 190.11 418.37 190.88L418.21 191.01C418.52 187.78 418.84 184.36 419.21 180.86L419.33 181.02L392.91 177.02H392.77V176.88C394.49 171.56 395.77 167.17 396.59 164.07C396.98 162.53 397.26 161.31 397.43 160.48C397.51 160.08 397.58 159.76 397.62 159.48L397.7 159.16C397.7 159.16 397.7 159.27 397.7 159.49C397.7 159.71 397.62 160.03 397.54 160.44C397.39 161.28 397.14 162.5 396.76 164.05C396.02 167.16 394.76 171.58 393.04 176.91L392.94 176.75L419.35 180.74H419.49V180.9C419.15 184.4 418.82 187.82 418.49 191.05V191.2H418.35C408.35 190.42 399.68 189.51 393.51 188.73C390.42 188.35 387.96 187.97 386.27 187.73L384.34 187.4L383.84 187.3H383.68" fill="#263238"/>
<path id="Vector_219" d="M424.77 179.89L424.52 182.01L432.39 182.2C432.39 182.2 432.39 184.63 431.66 185.36C431.66 185.36 432.39 186.83 431.58 187.64C430.77 188.45 430.28 188.21 430.28 188.21C430.28 188.21 430.61 189.83 429.8 190.21C428.99 190.59 418.45 189.98 418.45 189.98L419.1 183.2L421.46 182.99C422.23 180.8 423.6 179.94 424.77 179.86" fill="#FFBE9D"/>
<path id="Vector_220" d="M398.59 158.4C400.78 157.54 396.59 150.4 397.68 146.96C398.944 142.776 399.462 138.403 399.21 134.04C399.01 132.04 398.3 130.15 398.5 128.19C398.74 125.85 398.57 124.32 400.63 123.19C402.69 122.06 407.17 120.65 406.8 115.74C407.725 117.757 408.975 119.609 410.5 121.22C411.19 121.91 413.43 122.14 413.92 121.62C414.41 121.1 412.52 116.7 412.16 116.09C411.765 115.5 411.224 115.021 410.59 114.7C407.25 112.7 403.11 111.79 399.4 112.98C395.69 114.17 392.69 117.78 392.89 121.66C393 123.66 393.89 125.66 393.59 127.66C393.31 129.42 392.12 130.88 391.22 132.43C390.32 133.98 389.71 135.96 390.62 137.51C391.01 138.18 391.67 138.72 391.81 139.51C391.95 140.3 391.54 141.04 391.55 141.82C391.55 142.82 393.31 142.88 393.42 143.89C394.53 154.13 397.51 155.98 398.59 158.41" fill="#263238"/>
<path id="Vector_221" d="M406.51 115.87C406.519 115.943 406.519 116.017 406.51 116.09C406.487 116.296 406.451 116.499 406.4 116.7C406.216 117.452 405.908 118.169 405.49 118.82C404.873 119.797 404.042 120.621 403.06 121.23C402.48 121.578 401.863 121.859 401.22 122.07C400.548 122.274 399.925 122.614 399.39 123.07C398.39 124.02 397.83 125.41 396.84 126.31C395.981 127.104 394.885 127.593 393.72 127.7C392.948 127.79 392.165 127.705 391.43 127.45C391.234 127.378 391.043 127.291 390.86 127.19C390.73 127.12 390.67 127.07 390.68 127.06C390.69 127.05 390.96 127.17 391.47 127.32C392.194 127.512 392.948 127.56 393.69 127.46C394.788 127.313 395.812 126.827 396.62 126.07C397.53 125.24 398.02 123.86 399.16 122.81C399.731 122.347 400.392 122.007 401.1 121.81C401.724 121.613 402.324 121.348 402.89 121.02C403.843 120.447 404.659 119.672 405.28 118.75C405.837 117.883 406.255 116.935 406.52 115.94" fill="#455A64"/>
<path id="Vector_222" d="M388.66 123.36C388.722 123.639 388.837 123.904 389 124.14C389.257 124.427 389.574 124.653 389.928 124.804C390.282 124.954 390.665 125.024 391.05 125.01C391.62 125.006 392.183 124.879 392.7 124.639C393.218 124.4 393.678 124.052 394.05 123.62C394.471 123.072 394.862 122.501 395.22 121.91C395.602 121.224 396.166 120.656 396.85 120.27C397.572 119.974 398.352 119.851 399.13 119.91C399.817 119.933 400.504 119.883 401.18 119.76C402.323 119.527 403.404 119.053 404.35 118.37C405.207 117.71 405.956 116.92 406.57 116.03C406.57 116.03 406.57 116.11 406.48 116.24C406.386 116.439 406.276 116.63 406.15 116.81C405.696 117.48 405.139 118.073 404.5 118.57C403.543 119.309 402.432 119.825 401.25 120.08C400.552 120.218 399.841 120.275 399.13 120.25C398.407 120.205 397.683 120.321 397.01 120.59C396.383 120.952 395.862 121.473 395.5 122.1C395.14 122.705 394.735 123.284 394.29 123.83C393.883 124.291 393.381 124.658 392.818 124.905C392.255 125.152 391.645 125.273 391.03 125.26C390.617 125.273 390.207 125.189 389.832 125.015C389.457 124.842 389.128 124.583 388.87 124.26C388.746 124.073 388.664 123.862 388.63 123.64C388.63 123.48 388.63 123.4 388.63 123.4" fill="#455A64"/>
</g>
<g id="Group_13">
<path id="Vector_223" d="M249.11 213.37C243.722 211.989 238.661 209.558 234.216 206.215C229.771 202.872 226.031 198.683 223.21 193.89C220.565 189.218 218.954 184.033 218.485 178.685C218.015 173.337 218.699 167.951 220.49 162.89C223.32 155.01 228.77 148.08 231.11 140.06C233.76 130.97 232.18 121.32 230.55 112.01C228.92 102.7 227.24 93.09 229.73 83.95C232.22 74.81 240.04 66.23 250.11 65.58C259.45 64.98 268.11 71.44 271.98 79.4C275.85 87.36 275.9 96.47 274.98 105.17C274.06 113.87 272.3 122.57 272.86 131.3C273.98 148.97 284.58 165.61 283.34 183.3C282.69 192.5 278.88 198.39 272.34 205.3C266.72 211.3 257.34 215.18 249.09 213.3" fill="#455A64"/>
<path id="Vector_224" d="M252.41 300.94C252.32 300.94 252.24 261.79 252.24 213.51C252.24 165.23 252.32 126.07 252.41 126.07C252.5 126.07 252.59 165.21 252.59 213.51C252.59 261.81 252.51 300.94 252.41 300.94Z" fill="#263238"/>
<path id="Vector_225" d="M251.94 182.82C251.359 182.395 250.817 181.92 250.32 181.4C249.32 180.49 248.06 179.21 246.68 177.73C245.3 176.25 244.03 174.96 243.12 174.01C242.599 173.525 242.121 172.996 241.69 172.43C242.264 172.86 242.802 173.335 243.3 173.85C244.3 174.76 245.57 176.05 246.94 177.52C248.31 178.99 249.59 180.29 250.51 181.24C251.024 181.732 251.501 182.26 251.94 182.82" fill="#263238"/>
<path id="Vector_226" d="M282.15 293.68H223.67V300.82H282.15V293.68Z" fill="#263238"/>
<path id="Vector_227" d="M252.94 146.19C254.204 145.895 255.411 145.391 256.51 144.7C257.767 143.877 258.819 142.778 259.587 141.487C260.354 140.196 260.817 138.747 260.94 137.25C260.94 137.25 260.94 137.15 260.94 137.1L261.14 137.27C259.486 137.563 257.975 138.393 256.84 139.63C255.911 140.604 255.105 141.689 254.44 142.86C253.983 143.635 253.566 144.433 253.19 145.25C253.069 145.557 252.919 145.852 252.74 146.13C252.819 145.811 252.926 145.5 253.06 145.2C253.4 144.362 253.787 143.544 254.22 142.75C254.862 141.543 255.663 140.426 256.6 139.43C257.779 138.124 259.358 137.248 261.09 136.94H261.31V137.14C261.31 137.14 261.31 137.25 261.31 137.3C261.188 138.846 260.704 140.342 259.898 141.667C259.092 142.992 257.987 144.11 256.67 144.93C255.852 145.445 254.958 145.826 254.02 146.06C253.763 146.123 253.503 146.17 253.24 146.2C253.147 146.211 253.053 146.211 252.96 146.2" fill="#263238"/>
<path id="Vector_228" d="M252.94 146.19C253.668 145.121 254.488 144.117 255.39 143.19C256.214 142.167 257.124 141.217 258.11 140.35C257.386 141.438 256.566 142.459 255.66 143.4C254.841 144.424 253.93 145.371 252.94 146.23" fill="#263238"/>
<path id="Vector_229" d="M261.24 285.74C255.24 280.83 254.48 272.51 255.31 265.16C255.292 263.927 255.555 262.706 256.08 261.59C256.387 261.059 256.879 260.659 257.461 260.466C258.043 260.272 258.676 260.299 259.24 260.54C260.12 261.04 260.43 262.13 260.88 263.05C261.464 264.285 262.391 265.327 263.55 266.05C263.9 266.319 264.311 266.499 264.747 266.574C265.182 266.649 265.63 266.617 266.05 266.48C267.16 265.98 267.4 264.48 267.49 263.3C267.65 261.01 267.82 258.73 267.98 256.45C268.007 255.222 268.23 254.007 268.64 252.85C268.846 252.273 269.19 251.755 269.641 251.34C270.092 250.926 270.638 250.627 271.23 250.47C271.825 250.345 272.445 250.46 272.957 250.789C273.468 251.119 273.828 251.636 273.96 252.23C273.965 252.741 273.935 253.253 273.87 253.76C273.842 254.013 273.89 254.269 274.008 254.495C274.125 254.721 274.307 254.907 274.53 255.03C274.781 255.081 275.04 255.066 275.284 254.987C275.527 254.908 275.746 254.768 275.92 254.58C277.228 253.372 278.333 251.961 279.19 250.4C280.039 248.835 281.074 247.378 282.27 246.06C282.866 245.405 283.587 244.876 284.391 244.505C285.195 244.134 286.065 243.928 286.95 243.9C287.833 243.905 288.689 244.202 289.386 244.745C290.082 245.287 290.579 246.045 290.8 246.9C291.11 248.66 289.96 250.33 288.8 251.64C287.013 253.594 284.951 255.279 282.68 256.64C282.26 256.851 281.912 257.181 281.68 257.59C281.35 258.39 282.06 259.26 282.85 259.59C283.772 259.871 284.72 260.055 285.68 260.14C286.147 260.2 286.591 260.378 286.969 260.658C287.347 260.938 287.647 261.311 287.84 261.74C288.25 263.03 287.1 264.26 286 265.03C283.801 266.587 281.353 267.757 278.76 268.49C277.816 268.655 276.91 268.994 276.09 269.49C275.684 269.759 275.375 270.15 275.208 270.607C275.04 271.064 275.024 271.563 275.16 272.03C275.393 272.453 275.753 272.793 276.189 273.001C276.624 273.209 277.115 273.275 277.59 273.19C278.536 273.003 279.463 272.732 280.36 272.38C282.09 271.88 284.25 272.16 285.21 273.7C285.503 274.225 285.669 274.812 285.695 275.412C285.721 276.013 285.606 276.611 285.36 277.16C284.859 278.25 284.145 279.23 283.26 280.04C280.344 283.031 276.686 285.195 272.66 286.31C268.66 287.31 265.01 287.43 261.24 285.71" fill="#E8505B"/>
<g id="Group_14" opacity="0.4">
<g id="Group_15" opacity="0.4">
<path id="Vector_230" opacity="0.4" d="M261.24 285.74C255.24 280.83 254.48 272.51 255.31 265.16C255.292 263.927 255.555 262.706 256.08 261.59C256.387 261.059 256.879 260.659 257.461 260.466C258.043 260.272 258.676 260.299 259.24 260.54C260.12 261.04 260.43 262.13 260.88 263.05C261.464 264.285 262.391 265.327 263.55 266.05C263.9 266.319 264.311 266.499 264.747 266.574C265.182 266.649 265.63 266.617 266.05 266.48C267.16 265.98 267.4 264.48 267.49 263.3C267.65 261.01 267.82 258.73 267.98 256.45C268.007 255.222 268.23 254.007 268.64 252.85C268.846 252.273 269.19 251.755 269.641 251.34C270.092 250.926 270.638 250.627 271.23 250.47C271.825 250.345 272.445 250.46 272.957 250.789C273.468 251.119 273.828 251.636 273.96 252.23C273.965 252.741 273.935 253.253 273.87 253.76C273.842 254.013 273.89 254.269 274.008 254.495C274.125 254.721 274.307 254.907 274.53 255.03C274.781 255.081 275.04 255.066 275.284 254.987C275.527 254.908 275.746 254.768 275.92 254.58C277.228 253.372 278.333 251.961 279.19 250.4C280.039 248.835 281.074 247.378 282.27 246.06C282.866 245.405 283.587 244.876 284.391 244.505C285.195 244.134 286.065 243.928 286.95 243.9C287.833 243.905 288.689 244.202 289.386 244.745C290.082 245.287 290.579 246.045 290.8 246.9C291.11 248.66 289.96 250.33 288.8 251.64C287.013 253.594 284.951 255.279 282.68 256.64C282.26 256.851 281.912 257.181 281.68 257.59C281.35 258.39 282.06 259.26 282.85 259.59C283.772 259.871 284.72 260.055 285.68 260.14C286.147 260.2 286.591 260.378 286.969 260.658C287.347 260.938 287.647 261.311 287.84 261.74C288.25 263.03 287.1 264.26 286 265.03C283.801 266.587 281.353 267.757 278.76 268.49C277.816 268.655 276.91 268.994 276.09 269.49C275.684 269.759 275.375 270.15 275.208 270.607C275.04 271.064 275.024 271.563 275.16 272.03C275.393 272.453 275.753 272.793 276.189 273.001C276.624 273.209 277.115 273.275 277.59 273.19C278.536 273.003 279.463 272.732 280.36 272.38C282.09 271.88 284.25 272.16 285.21 273.7C285.503 274.225 285.669 274.812 285.695 275.412C285.721 276.013 285.606 276.611 285.36 277.16C284.859 278.25 284.145 279.23 283.26 280.04C280.344 283.031 276.686 285.195 272.66 286.31C268.66 287.31 265.01 287.43 261.24 285.71" fill="black"/>
</g>
</g>
<path id="Vector_231" d="M289.16 245.06L289.04 245.17L288.65 245.46C288.3 245.72 287.8 246.1 287.16 246.61C285.352 248.037 283.657 249.602 282.09 251.29C281.09 252.35 280.09 253.56 278.94 254.88C277.79 256.2 276.68 257.62 275.51 259.16C274.276 260.763 273.131 262.432 272.08 264.16C271.53 265.06 271.08 266 270.53 266.97C269.98 267.94 269.53 268.91 268.99 269.9C267.018 273.614 265.252 277.433 263.7 281.34C262.449 284.536 261.505 287.845 260.88 291.22C260.458 293.496 260.237 295.805 260.22 298.12C260.22 298.94 260.22 299.58 260.22 300.01C260.22 300.21 260.22 300.38 260.22 300.5V300.67C260.22 300.67 260.22 300.61 260.22 300.5C260.22 300.39 260.22 300.22 260.22 300.01C260.22 299.58 260.15 298.94 260.14 298.12C260.122 295.797 260.32 293.477 260.73 291.19C261.339 287.798 262.273 284.473 263.52 281.26C265.062 277.343 266.825 273.517 268.8 269.8C269.32 268.8 269.8 267.8 270.34 266.86C270.88 265.92 271.34 264.95 271.9 264.05C272.959 262.32 274.114 260.651 275.36 259.05C276.53 257.51 277.7 256.05 278.81 254.78C279.92 253.51 280.98 252.25 281.99 251.2C283.571 249.516 285.287 247.964 287.12 246.56C287.76 246.06 288.28 245.69 288.63 245.45L289.03 245.17L289.17 245.08" fill="#263238"/>
<path id="Vector_232" d="M271.94 264.03C271.887 263.858 271.861 263.68 271.86 263.5C271.86 263.16 271.78 262.66 271.74 262.04C271.67 260.81 271.62 259.11 271.57 257.22C271.52 255.33 271.45 253.64 271.36 252.42C271.31 251.8 271.27 251.31 271.23 250.96C271.206 250.784 271.206 250.606 271.23 250.43C271.28 250.6 271.317 250.774 271.34 250.95C271.4 251.29 271.47 251.79 271.53 252.4C271.67 253.63 271.77 255.34 271.82 257.22C271.87 259.1 271.89 260.75 271.92 262.03C271.92 262.61 271.92 263.1 271.92 263.49C271.933 263.67 271.933 263.85 271.92 264.03" fill="#263238"/>
<path id="Vector_233" d="M287.94 262.33C287.73 262.345 287.52 262.345 287.31 262.33C286.9 262.33 286.31 262.33 285.59 262.33C284.13 262.33 282.13 262.5 279.92 262.74C277.71 262.98 275.73 263.29 274.3 263.55C273.58 263.67 273 263.79 272.6 263.87C272.398 263.926 272.19 263.96 271.98 263.97C272.175 263.891 272.375 263.828 272.58 263.78C272.98 263.68 273.58 263.53 274.27 263.39C276.13 263.001 278.01 262.707 279.9 262.51C281.786 262.299 283.682 262.185 285.58 262.17C286.31 262.17 286.9 262.17 287.31 262.17C287.522 262.165 287.733 262.185 287.94 262.23" fill="#263238"/>
<path id="Vector_234" d="M263.73 280.98C263.689 280.917 263.656 280.85 263.63 280.78C263.57 280.62 263.5 280.42 263.41 280.19C263.22 279.67 262.96 278.92 262.65 277.99C262.03 276.13 261.26 273.53 260.45 270.65C259.64 267.77 258.89 265.17 258.31 263.29C258.03 262.38 257.79 261.63 257.62 261.08L257.44 260.47C257.412 260.403 257.395 260.332 257.39 260.26C257.425 260.325 257.455 260.391 257.48 260.46L257.7 261.05C257.9 261.56 258.15 262.31 258.46 263.24C259.08 265.11 259.85 267.71 260.67 270.59C261.49 273.47 262.22 276.07 262.8 277.94C263.09 278.85 263.32 279.6 263.49 280.16C263.57 280.4 263.63 280.6 263.68 280.76C263.703 280.832 263.72 280.905 263.73 280.98" fill="#263238"/>
<path id="Vector_235" d="M285.16 275.88C285.16 275.88 285.09 275.88 284.95 275.95L284.33 276.11L282.03 276.66C280.09 277.12 277.42 277.79 274.47 278.54C271.52 279.29 268.84 279.93 266.9 280.36C265.9 280.57 265.13 280.74 264.58 280.84L263.95 280.95C263.877 280.957 263.803 280.957 263.73 280.95C263.794 280.912 263.866 280.888 263.94 280.88L264.56 280.72L266.86 280.17C268.8 279.71 271.47 279.04 274.42 278.29C277.37 277.54 280.05 276.89 282 276.47C283 276.26 283.76 276.09 284.31 275.99L284.94 275.88H285.16Z" fill="#263238"/>
<path id="Vector_236" d="M250.18 279.68C261.97 271.14 264.42 255.62 263.71 241.68C263.59 239.36 263.8 236.91 262.71 234.89C261.62 232.87 258.96 231.52 256.9 232.53C255.19 233.38 254.47 235.39 253.54 237.07C252.288 239.304 250.43 241.138 248.18 242.36C246.72 243.16 244.89 243.66 243.42 242.88C241.42 241.81 241.12 239.04 241.09 236.73C241.037 232.43 240.99 228.127 240.95 223.82C241.049 221.508 240.776 219.195 240.14 216.97C239.815 215.866 239.227 214.856 238.428 214.028C237.629 213.199 236.642 212.575 235.55 212.21C233.35 211.63 230.65 212.94 230.23 215.21C230.165 216.169 230.165 217.131 230.23 218.09C230.25 218.568 230.131 219.041 229.886 219.451C229.64 219.862 229.28 220.192 228.85 220.4C228.373 220.465 227.888 220.407 227.44 220.232C226.993 220.057 226.597 219.77 226.29 219.4C223.971 216.983 222.062 214.203 220.64 211.17C219.218 208.138 217.442 205.285 215.35 202.67C213.14 200.16 210.12 198.2 206.81 198.07C203.5 197.94 200.01 200.07 199.23 203.3C198.45 206.53 200.4 209.84 202.51 212.44C205.646 216.296 209.32 219.681 213.42 222.49C214.216 222.913 214.857 223.579 215.25 224.39C215.78 225.92 214.34 227.47 212.83 228C211.12 228.61 209.25 228.46 207.45 228.7C205.65 228.94 203.72 229.77 203.07 231.49C202.16 233.86 204.18 236.3 206.15 237.89C210.093 241.071 214.555 243.548 219.34 245.21C221.097 245.668 222.758 246.441 224.24 247.49C225.63 248.66 226.49 250.72 225.69 252.36C224.89 254 222.78 254.56 220.99 254.26C219.239 253.793 217.533 253.174 215.89 252.41C212.7 251.27 208.6 251.56 206.62 254.34C206.015 255.293 205.64 256.373 205.523 257.496C205.407 258.619 205.553 259.753 205.95 260.81C206.756 262.917 207.981 264.839 209.55 266.46C214.682 272.412 221.3 276.898 228.73 279.46C236.14 281.89 242.97 282.46 250.24 279.66" fill="#E8505B"/>
<path id="Vector_237" d="M251.1 300.31C251.32 297.23 251.15 295.5 250.54 289.99C249.788 283.539 248.415 277.177 246.44 270.99C244.006 263.451 241.138 256.058 237.85 248.85L235.3 243.17C234.46 241.3 233.62 239.45 232.7 237.69C230.912 234.32 228.939 231.052 226.79 227.9C224.79 224.9 222.72 222.07 220.79 219.47C218.86 216.87 217.02 214.47 215.24 212.38C212.46 209.042 209.417 205.932 206.14 203.08C204.98 202.08 204.06 201.32 203.43 200.81L202.7 200.25L202.45 200.06C202.45 200.06 202.52 200.14 202.68 200.28L203.37 200.88C203.99 201.41 204.89 202.18 206.03 203.21C209.265 206.099 212.273 209.232 215.03 212.58C216.79 214.69 218.62 217.08 220.53 219.68C222.44 222.28 224.47 225.09 226.53 228.12C228.663 231.267 230.623 234.529 232.4 237.89C233.32 239.64 234.14 241.47 234.99 243.34C235.84 245.21 236.67 247.11 237.53 249.03C240.813 256.222 243.687 263.594 246.14 271.11C248.122 277.258 249.519 283.579 250.31 289.99C250.96 295.48 251.17 297.19 251 300.27" fill="#263238"/>
<path id="Vector_238" d="M232.57 237.74C232.681 237.417 232.752 237.081 232.78 236.74C232.89 236.1 233.02 235.17 233.17 234.02C233.45 231.71 233.74 228.51 234.05 225.02C234.36 221.53 234.68 218.31 235 216.02C235.16 214.88 235.3 213.95 235.4 213.31C235.475 212.982 235.512 212.646 235.51 212.31C235.383 212.632 235.292 212.968 235.24 213.31C235.09 213.94 234.9 214.86 234.71 216.01C234.31 218.3 233.93 221.49 233.62 225.01C233.31 228.53 233.07 231.64 232.87 234.01C232.77 235.1 232.69 236.01 232.62 236.75C232.573 237.081 232.556 237.416 232.57 237.75" fill="#263238"/>
<path id="Vector_239" d="M202.79 232.67C203.182 232.747 203.58 232.787 203.98 232.79C204.74 232.79 205.84 232.92 207.2 233.05C209.93 233.3 213.68 233.77 217.8 234.47C221.92 235.17 225.61 235.99 228.27 236.64C229.6 236.96 230.67 237.25 231.41 237.45C231.788 237.571 232.176 237.658 232.57 237.71C232.216 237.529 231.844 237.385 231.46 237.28C230.73 237.04 229.67 236.71 228.34 236.35C225.7 235.62 222 234.76 217.87 234.05C214.347 233.438 210.796 233.004 207.23 232.75C205.86 232.65 204.75 232.62 203.98 232.62C203.583 232.596 203.184 232.613 202.79 232.67Z" fill="#263238"/>
<path id="Vector_240" d="M246.07 270.48C246.151 270.369 246.218 270.248 246.27 270.12C246.4 269.82 246.56 269.47 246.76 269.03C247.18 268.09 247.76 266.71 248.44 265.03C249.81 261.6 251.56 256.81 253.44 251.5C255.32 246.19 257 241.38 258.31 237.93C258.94 236.25 259.47 234.87 259.86 233.85C260.02 233.4 260.16 233.04 260.27 232.74C260.329 232.613 260.37 232.479 260.39 232.34C260.309 232.451 260.242 232.572 260.19 232.7L259.71 233.79C259.28 234.73 258.71 236.11 258.03 237.79C256.65 241.22 254.9 246.01 253.03 251.32C251.16 256.63 249.47 261.44 248.17 264.89L246.61 268.97L246.2 270.08C246.147 270.209 246.106 270.343 246.08 270.48" fill="#263238"/>
<path id="Vector_241" d="M206.4 258.44C206.523 258.507 206.654 258.557 206.79 258.59L207.95 258.96L212.19 260.26C215.78 261.35 220.72 262.92 226.19 264.67C231.66 266.42 236.6 267.94 240.19 268.96C242 269.47 243.46 269.87 244.48 270.12L245.65 270.41C245.785 270.456 245.927 270.479 246.07 270.48L245.68 270.33L244.52 269.96L240.28 268.67C236.69 267.57 231.75 266 226.28 264.26C220.81 262.52 215.87 260.99 212.28 259.96C210.47 259.45 209.01 259.05 207.99 258.8L206.82 258.51C206.683 258.471 206.542 258.447 206.4 258.44" fill="#263238"/>
<path id="Vector_242" d="M586.28 209.62C581.83 203.83 580.46 192.74 583.59 186.15C585.326 188.669 587.601 190.769 590.25 192.3C588.777 188.763 587.701 185.074 587.04 181.3L592.76 176.88C593.53 178.52 594.1 181.88 595.6 183.57C594.06 181.09 594.6 175.45 596.43 173.78C598.636 171.878 601.219 170.463 604.01 169.63C607.49 168.437 611.076 167.583 614.72 167.08C617.14 166.78 619.85 166.77 621.72 168.36C624.33 170.63 623.72 175.06 621.52 177.71C619.32 180.36 615.96 181.71 612.87 183.28C601.478 189.059 592.188 198.269 586.31 209.61" fill="#E8505B"/>
<path id="Vector_243" d="M561.19 182.79C565.64 177.01 567.01 165.91 563.88 159.32C562.144 161.839 559.869 163.939 557.22 165.47C558.693 161.933 559.769 158.244 560.43 154.47L554.71 150.06C553.94 151.69 553.37 155.06 551.87 156.74C553.4 154.26 552.87 148.62 551.04 146.95C548.834 145.048 546.251 143.633 543.46 142.8C539.981 141.606 536.394 140.755 532.75 140.26C530.33 139.95 527.62 139.94 525.75 141.53C523.14 143.8 523.75 148.23 525.95 150.88C528.15 153.53 531.51 154.88 534.6 156.46C545.99 162.237 555.28 171.443 561.16 182.78" fill="#E8505B"/>
<path id="Vector_244" d="M573.3 171C575.77 167.77 579.46 165.72 582.51 163C585.56 160.28 588.13 156.31 587.15 152.36L581.66 154.05C584.593 152.387 586.846 149.741 588.02 146.58C589.195 143.419 589.216 139.945 588.08 136.77L586.2 137.11C587.32 136.423 588.274 135.496 588.993 134.396C589.712 133.297 590.179 132.051 590.36 130.75C590.7 128.147 590.537 125.502 589.88 122.96C588.959 118.671 587.57 114.496 585.74 110.51C584.13 111.62 582.07 111.74 580.16 112.17C578.25 112.6 576.16 113.61 575.68 115.5C574.86 118.5 578.38 121.23 577.95 124.29C576.335 122.147 574.148 120.504 571.64 119.55C571.54 121.84 568.79 123.55 569.09 125.81C569.26 126.58 569.602 127.301 570.09 127.92L577.67 138.92C573.017 137.136 568.518 134.972 564.22 132.45C565.01 145.89 567.22 158.97 573.29 170.98" fill="#E8505B"/>
<path id="Vector_245" d="M615.76 176.2L615.58 176.33L615.01 176.67C614.52 176.97 613.76 177.36 612.84 177.95C610.209 179.574 607.696 181.382 605.32 183.36C604.56 183.96 603.81 184.67 603 185.36C602.19 186.05 601.41 186.84 600.61 187.66C598.877 189.389 597.247 191.219 595.73 193.14C594.92 194.14 594.18 195.24 593.4 196.35C593.02 196.91 592.61 197.46 592.24 198.04L591.15 199.83C590.39 201.01 589.78 202.31 589.09 203.58C588.73 204.22 588.47 204.9 588.15 205.58C587.83 206.26 587.52 206.92 587.25 207.58C585.139 212.778 583.626 218.2 582.74 223.74C582.021 228.268 581.663 232.846 581.67 237.43C581.67 239.43 581.75 241.15 581.79 242.71C581.83 244.27 582 245.59 582.08 246.71C582.16 247.83 582.29 248.62 582.35 249.22C582.35 249.49 582.4 249.7 582.41 249.87C582.419 249.943 582.419 250.017 582.41 250.09C582.399 250.017 582.399 249.943 582.41 249.87C582.41 249.71 582.35 249.49 582.31 249.22C582.23 248.63 582.12 247.79 581.98 246.72C581.84 245.65 581.75 244.29 581.62 242.72C581.49 241.15 581.43 239.39 581.45 237.43C581.407 232.83 581.741 228.235 582.45 223.69C583.316 218.117 584.826 212.664 586.95 207.44C587.23 206.74 587.56 206.07 587.86 205.44C588.16 204.81 588.45 204.08 588.8 203.44C589.5 202.16 590.11 200.85 590.89 199.67L591.98 197.88C592.35 197.29 592.77 196.74 593.15 196.18C593.93 195.07 594.68 193.97 595.5 192.96C597.034 191.035 598.681 189.202 600.43 187.47C601.24 186.65 602.07 185.91 602.85 185.17C603.63 184.43 604.42 183.78 605.19 183.17C607.589 181.205 610.133 179.423 612.8 177.84C613.74 177.27 614.5 176.84 615.01 176.61L615.59 176.31L615.79 176.21" fill="#263238"/>
<path id="Vector_246" d="M568.82 248.38C568.811 248.29 568.811 248.2 568.82 248.11C568.82 247.91 568.82 247.65 568.82 247.31C568.82 246.59 568.76 245.56 568.72 244.25C568.68 242.94 568.63 241.25 568.62 239.39C568.61 237.53 568.55 235.39 568.56 232.97C568.56 228.2 568.63 222.53 568.83 216.23C569.03 209.93 569.41 203.02 569.95 195.77C570.49 188.52 571.2 181.62 571.95 175.37C572.7 169.12 573.47 163.49 574.2 158.78C574.54 156.42 574.91 154.3 575.2 152.43C575.49 150.56 575.79 148.96 576.03 147.65L576.59 144.65C576.66 144.32 576.71 144.06 576.75 143.87C576.758 143.781 576.778 143.694 576.81 143.61C576.823 143.7 576.823 143.79 576.81 143.88C576.81 144.07 576.74 144.33 576.69 144.67C576.58 145.38 576.41 146.39 576.2 147.67C575.99 148.95 575.71 150.59 575.42 152.46C575.13 154.33 574.79 156.46 574.42 158.82C573.72 163.53 572.97 169.15 572.24 175.4C571.51 181.65 570.86 188.55 570.3 195.79C569.74 203.03 569.4 209.95 569.16 216.24C568.92 222.53 568.83 228.24 568.81 232.97C568.81 235.35 568.81 237.5 568.81 239.39C568.81 241.28 568.81 242.91 568.86 244.24C568.91 245.57 568.86 246.59 568.86 247.31V248.11C568.871 248.2 568.871 248.29 568.86 248.38" fill="#263238"/>
<path id="Vector_247" d="M549.04 161.96C549.163 162.099 549.277 162.246 549.38 162.4L550.32 163.69C550.73 164.24 551.22 164.93 551.75 165.76C552.28 166.59 552.93 167.5 553.57 168.56C554.21 169.62 554.93 170.76 555.64 172.03C556.35 173.3 557.1 174.66 557.87 176.11C559.36 179.02 560.87 182.28 562.29 185.78C563.71 189.28 564.82 192.71 565.75 195.85C566.18 197.43 566.61 198.92 566.94 200.34C567.27 201.76 567.58 203.07 567.82 204.34C568.06 205.61 568.26 206.65 568.44 207.62C568.62 208.59 568.74 209.42 568.82 210.11C568.9 210.8 568.98 211.29 569.03 211.68C569.042 211.866 569.042 212.054 569.03 212.24C568.978 212.059 568.938 211.876 568.91 211.69C568.843 211.297 568.753 210.777 568.64 210.13C568.53 209.44 568.39 208.61 568.19 207.65C567.99 206.69 567.81 205.59 567.53 204.39C567.25 203.19 566.97 201.86 566.6 200.46C566.23 199.06 565.83 197.56 565.38 195.99C564.44 192.87 563.3 189.47 561.91 185.99C560.52 182.51 559 179.24 557.53 176.33C556.77 174.88 556.06 173.5 555.34 172.25C554.62 171 553.94 169.82 553.34 168.76C552.74 167.7 552.1 166.76 551.58 165.94C551.06 165.12 550.58 164.4 550.2 163.83L549.32 162.51C549.21 162.359 549.113 162.198 549.03 162.03" fill="#263238"/>
<g id="Group_16" opacity="0.2">
<g id="Group_17" opacity="0.2">
<path id="Vector_248" opacity="0.2" d="M586.28 209.62C581.83 203.83 580.46 192.74 583.59 186.15C585.326 188.669 587.601 190.769 590.25 192.3C588.777 188.763 587.701 185.074 587.04 181.3L592.76 176.88C593.53 178.52 594.1 181.88 595.6 183.57C594.06 181.09 594.6 175.45 596.43 173.78C598.636 171.878 601.219 170.463 604.01 169.63C607.49 168.437 611.076 167.583 614.72 167.08C617.14 166.78 619.85 166.77 621.72 168.36C624.33 170.63 623.72 175.06 621.52 177.71C619.32 180.36 615.96 181.71 612.87 183.28C601.478 189.059 592.188 198.269 586.31 209.61" fill="black"/>
</g>
</g>
<path id="Vector_249" d="M539.59 202.31C537.23 203.31 535.39 205.2 533.26 206.63C531.13 208.06 528.26 208.97 526.04 207.74L527.96 204.67C526.478 206.191 524.505 207.138 522.391 207.345C520.278 207.552 518.159 207.005 516.41 205.8L516.94 204.74C516.341 205.311 515.624 205.742 514.839 206.003C514.054 206.264 513.221 206.349 512.4 206.25C510.763 206.037 509.181 205.515 507.74 204.71C505.279 203.459 502.962 201.943 500.83 200.19C501.654 199.273 502.302 198.212 502.74 197.06C503.31 195.97 506.03 194.44 506.03 194.44L510.47 197.66C509.423 196.335 508.775 194.74 508.6 193.06C510.01 193.37 511.48 191.97 512.82 192.52C513.28 192.71 514.9 192.57 515.29 192.88C516.733 193.97 518.007 195.267 519.07 196.73C518.73 193.62 518.47 193.64 517.63 190.62C525.68 193.27 533.28 196.71 539.63 202.34" fill="#E8505B"/>
<g id="Group_18" opacity="0.3">
<g id="Group_19" opacity="0.3">
<path id="Vector_250" opacity="0.3" d="M539.59 202.31C537.23 203.31 535.39 205.2 533.26 206.63C531.13 208.06 528.26 208.97 526.04 207.74L527.96 204.67C526.478 206.191 524.505 207.138 522.391 207.345C520.278 207.552 518.159 207.005 516.41 205.8L516.94 204.74C516.341 205.311 515.624 205.742 514.839 206.003C514.054 206.264 513.221 206.349 512.4 206.25C510.763 206.037 509.181 205.515 507.74 204.71C505.279 203.459 502.962 201.943 500.83 200.19C501.654 199.273 502.302 198.212 502.74 197.06C503.31 195.97 506.03 194.44 506.03 194.44L510.47 197.66C509.423 196.335 508.775 194.74 508.6 193.06C510.01 193.37 511.48 191.97 512.82 192.52C513.28 192.71 514.9 192.57 515.29 192.88C516.733 193.97 518.007 195.267 519.07 196.73C518.73 193.62 518.47 193.64 517.63 190.62C525.68 193.27 533.28 196.71 539.63 202.34" fill="black"/>
</g>
</g>
<path id="Vector_251" d="M521.17 200.39C521.927 199.961 522.733 199.625 523.57 199.39C525.866 198.711 528.283 198.547 530.65 198.91C534.152 199.465 537.492 200.771 540.44 202.74C544.032 205.127 547.381 207.86 550.44 210.9C553.543 213.908 556.346 217.21 558.81 220.76C560.817 223.658 562.536 226.746 563.94 229.98C564.88 232.163 565.655 234.412 566.26 236.71C566.46 237.53 566.59 238.17 566.68 238.6C566.68 238.8 566.75 238.96 566.78 239.09C566.81 239.22 566.78 239.26 566.78 239.26C566.78 239.26 566.78 239.26 566.72 239.1C566.66 238.94 566.64 238.81 566.59 238.61C566.47 238.157 566.31 237.537 566.11 236.75C565.459 234.475 564.654 232.246 563.7 230.08C562.26 226.879 560.526 223.819 558.52 220.94C556.05 217.422 553.255 214.144 550.17 211.15C547.122 208.127 543.79 205.405 540.22 203.02C537.32 201.044 534.029 199.714 530.57 199.12C528.236 198.745 525.849 198.874 523.57 199.5C522.951 199.676 522.343 199.89 521.75 200.14L521.29 200.35C521.19 200.35 521.14 200.41 521.13 200.4" fill="#263238"/>
<path id="Vector_252" d="M617.41 251.24C613.11 237.87 597.78 229.11 584.08 232.19C580.496 228.136 575.972 225.022 570.905 223.123C565.838 221.224 560.383 220.597 555.017 221.297C549.651 221.997 544.539 224.002 540.128 227.137C535.718 230.273 532.144 234.442 529.72 239.28C522.709 236.154 514.985 234.977 507.361 235.873C499.737 236.769 492.496 239.704 486.4 244.37L477.4 250.01L617.41 251.24Z" fill="#455A64"/>
</g>
</g>
</g>
<g id="blue_ground">
<path id="blue_ground_2" d="M821.57 301H-3V341.14H821.57V301Z" fill="url(#paint0_linear)"/>
</g>
</g>
</g>
<defs>
<linearGradient id="paint0_linear" x1="409.28" y1="341.14" x2="409.28" y2="301" gradientUnits="userSpaceOnUse">
<stop stop-color="#0A3E4D"/>
<stop offset="0.55" stop-color="#105669"/>
<stop offset="1" stop-color="#007F97"/>
</linearGradient>
<clipPath id="clip0">
<rect width="821.27" height="339.62" fill="white"/>
</clipPath>
</defs>
</svg>
