<svg xmlns="http://www.w3.org/2000/svg" xmlns:xlink="http://www.w3.org/1999/xlink" viewBox="0 0 821.27 339.62"><defs><style>.cls-1{fill:url(#Degradado_sin_nombre_46);}.cls-2{isolation:isolate;}.cls-3{clip-path:url(#clip-path);}.cls-4{fill:url(#Degradado_sin_nombre_59);}.cls-5{fill:#c3debc;}.cls-6{fill:#84d0c7;}.cls-7{fill:#3daabe;}.cls-8{fill:#125160;}.cls-10,.cls-11,.cls-9{fill:#fff;}.cls-9{opacity:0.25;}.cls-10{opacity:0.2;}.cls-10,.cls-11{mix-blend-mode:overlay;}.cls-11{opacity:0.1;}</style><linearGradient id="Degradado_sin_nombre_46" x1="409.28" y1="341.14" x2="409.28" y2="202.56" gradientUnits="userSpaceOnUse"><stop offset="0" stop-color="#0a3e4d"/><stop offset="0.55" stop-color="#105669"/><stop offset="1" stop-color="#007f97"/></linearGradient><clipPath id="clip-path"><rect class="cls-1" x="-3" y="202.56" width="824.57" height="138.59"/></clipPath><radialGradient id="Degradado_sin_nombre_59" cx="411.55" cy="-1852.63" r="398.24" gradientTransform="translate(0 839.03) scale(1 0.34)" gradientUnits="userSpaceOnUse"><stop offset="0" stop-color="#c3debc"/><stop offset="0.1" stop-color="#cedeb0" stop-opacity="0.79"/><stop offset="0.24" stop-color="#dcdfa3" stop-opacity="0.55"/><stop offset="0.37" stop-color="#e6df98" stop-opacity="0.35"/><stop offset="0.5" stop-color="#efe08f" stop-opacity="0.2"/><stop offset="0.62" stop-color="#f5e089" stop-opacity="0.09"/><stop offset="0.72" stop-color="#f9e085" stop-opacity="0.02"/><stop offset="0.81" stop-color="#fae084" stop-opacity="0"/></radialGradient></defs><title>mountain_2</title><g class="cls-2"><g id="Layer_1" data-name="Layer 1"><rect class="cls-1" x="-3" y="202.56" width="824.57" height="138.59"/><g class="cls-3"><path class="cls-4" d="M821.57,217.92c0,76.74-184.75,123.22-410.78,123.22S1.53,294.66,1.53,217.92,184.76,79,410.79,79,821.57,141.19,821.57,217.92Z"/></g><polygon class="cls-5" points="13.18 127.18 29.3 116.59 54.76 110.1 71.66 121.57 91.67 129.44 115.01 142.28 136.22 133.08 150.65 121.57 161.99 116.59 187.11 127.18 237.54 137.54 237.54 137.16 257.89 137.1 278.43 142.25 289.97 142.25 304.85 137.1 330.58 137.1 355.44 146.59 374.89 146.59 378.2 146.99 382.41 145.69 393.24 140.39 410.34 137.13 421.69 142.88 435.14 146.83 450.81 153.27 465.06 148.66 474.75 142.88 482.38 140.39 499.25 145.69 525.83 149.77 557.01 146.05 576.9 146.05 602.32 136.55 628.63 136.55 643.85 141.7 655.65 141.7 676.66 136.55 697.46 136.6 732.43 115.47 750.28 110.1 778.03 126.17 791 133.02 821.57 138.12 821.57 191.34 -3 192.31 -3 134.02 13.18 127.18"/><polygon class="cls-6" points="805.39 142.89 789.27 129.34 763.81 121.03 746.91 135.71 726.89 145.78 703.56 162.22 682.35 150.44 667.92 135.71 656.57 129.34 631.46 142.89 581.03 156.15 581.03 155.66 560.68 155.6 540.14 162.18 528.6 162.18 513.72 155.6 487.99 155.6 463.13 167.74 443.68 167.74 440.37 168.25 436.16 166.59 425.33 159.8 408.23 155.63 396.88 162.99 383.43 168.04 367.75 176.29 353.5 170.38 343.81 162.99 336.19 159.8 319.32 166.59 292.74 171.81 261.56 167.05 241.67 167.05 216.24 154.88 189.94 154.88 174.72 161.48 162.92 161.48 141.91 154.88 121.11 154.95 86.14 127.9 68.29 121.03 40.54 141.59 27.57 150.36 -3 156.89 -3 189.2 285.44 189.2 285.44 190.44 447.3 190.44 447.3 189.84 581.03 189.84 581.03 190.44 821.57 190.44 821.57 151.65 805.39 142.89"/><polygon class="cls-7" points="757.96 173.82 733.9 182.26 701.31 179.24 675.95 177.61 658.66 179.49 632.92 173.6 604.76 173.6 567.15 176.84 548.35 184.17 480.82 176.84 448.23 176.93 423.55 170.39 393.4 176.84 357.97 176.93 302.81 188.6 270.22 184.17 251.42 176.84 213.81 173.6 185.64 173.6 159.91 179.49 142.61 177.61 117.26 179.24 84.66 182.26 60.61 173.82 -3 179.45 -3 202.56 821.57 202.56 821.57 179.45 757.96 173.82"/><polygon class="cls-8" points="32.63 191.69 56.68 195.91 89.28 194.39 114.63 193.58 131.93 194.52 171.66 191.58 199.82 194.38 251.42 193.19 270.22 196.86 337.75 193.19 370.34 193.24 395.02 189.97 425.17 193.19 460.6 193.24 515.75 199.07 548.35 196.86 567.15 193.19 590.77 192.28 632.92 198.57 662.86 197.32 694.14 193.58 719.5 194.39 733.9 195.91 785.94 191.69 821.57 194.5 821.57 202.56 -3 202.56 -3 194.5 32.63 191.69"/><polygon class="cls-9" points="619.29 213.25 553.35 210.2 467.56 213.33 619.29 213.25"/><polygon class="cls-9" points="821.57 221.29 595.84 215.25 425.8 221.46 821.57 221.29"/><polygon class="cls-9" points="623.92 227.5 493.21 221.46 323.16 227.66 623.92 227.5"/><polygon class="cls-10" points="-3 213.84 821.57 210.61 821.57 282.18 -3 293.88 -3 213.84"/><polygon class="cls-11" points="-3 274.64 821.57 276.21 821.57 302.64 -3 307.94 -3 274.64"/><polygon class="cls-11" points="821.57 317.19 -3 318.76 -3 341.14 821.57 341.14 821.57 317.19"/><polygon class="cls-9" points="-3 221.51 396.72 218.9 396.72 219.76 -3 230.51 -3 221.51"/><polygon class="cls-9" points="-3 218.47 -3 214.76 187.55 218.57 -3 218.47"/></g></g></svg>