<svg id="Layer_1" data-name="Layer 1" xmlns="http://www.w3.org/2000/svg" xmlns:xlink="http://www.w3.org/1999/xlink" viewBox="0 0 821.27 339.62"><defs><style>.cls-1{fill:url(#Degradado_sin_nombre_46);}.cls-2{fill:none;}.cls-3{clip-path:url(#clip-path);}.cls-4{fill:url(#Degradado_sin_nombre_59);}.cls-5{clip-path:url(#clip-path-2);}.cls-6{fill:#e0e0e0;}.cls-7{fill:#ebebeb;}.cls-8{fill:#f5f5f5;}.cls-9{fill:#fafafa;}.cls-10{fill:#fff;}.cls-11{fill:#263238;}.cls-12{fill:#455a64;}.cls-13{fill:#ffbe9d;}.cls-14{fill:#e8505b;}.cls-15{opacity:0.6;}.cls-16{clip-path:url(#clip-path-7);}.cls-17{clip-path:url(#clip-path-8);}.cls-18{clip-path:url(#clip-path-9);}.cls-19{clip-path:url(#clip-path-10);}.cls-20{opacity:0.3;}.cls-21{clip-path:url(#clip-path-11);}.cls-22{clip-path:url(#clip-path-12);}.cls-23{fill:#eb996e;}.cls-24{opacity:0.4;}.cls-25{clip-path:url(#clip-path-14);}.cls-26{opacity:0.2;}.cls-27{clip-path:url(#clip-path-15);}.cls-28{clip-path:url(#clip-path-16);}</style><linearGradient id="Degradado_sin_nombre_46" x1="409.28" y1="341.14" x2="409.28" y2="301" gradientUnits="userSpaceOnUse"><stop offset="0" stop-color="#0a3e4d"/><stop offset="0.55" stop-color="#105669"/><stop offset="1" stop-color="#007f97"/></linearGradient><clipPath id="clip-path"><rect class="cls-1" x="-3" y="301" width="824.57" height="40.14"/></clipPath><radialGradient id="Degradado_sin_nombre_59" cx="411.55" cy="-1852.63" r="398.24" gradientTransform="translate(0 485.36) scale(1 0.1)" gradientUnits="userSpaceOnUse"><stop offset="0" stop-color="#c3debc"/><stop offset="0.1" stop-color="#cedeb0" stop-opacity="0.79"/><stop offset="0.24" stop-color="#dcdfa3" stop-opacity="0.55"/><stop offset="0.37" stop-color="#e6df98" stop-opacity="0.35"/><stop offset="0.5" stop-color="#efe08f" stop-opacity="0.2"/><stop offset="0.62" stop-color="#f5e089" stop-opacity="0.09"/><stop offset="0.72" stop-color="#f9e085" stop-opacity="0.02"/><stop offset="0.81" stop-color="#fae084" stop-opacity="0"/></radialGradient><clipPath id="clip-path-2"><rect class="cls-2" x="154.57" y="0.58" width="509.43" height="339.62"/></clipPath><clipPath id="clip-path-7"><rect class="cls-2" x="355.13" y="286.47" width="15.35" height="14.88"/></clipPath><clipPath id="clip-path-8"><rect class="cls-2" x="359.64" y="286.07" width="1.91" height="1.91"/></clipPath><clipPath id="clip-path-9"><rect class="cls-2" x="437.68" y="293.89" width="1.58" height="1.6"/></clipPath><clipPath id="clip-path-10"><rect class="cls-2" x="436.66" y="293.58" width="19.99" height="8.13"/></clipPath><clipPath id="clip-path-11"><rect class="cls-2" x="404.17" y="149.91" width="34.18" height="59.97"/></clipPath><clipPath id="clip-path-12"><rect class="cls-2" x="385.89" y="190.47" width="30.91" height="32.88"/></clipPath><clipPath id="clip-path-14"><rect class="cls-2" x="255.09" y="245.11" width="35.82" height="43.21"/></clipPath><clipPath id="clip-path-15"><rect class="cls-2" x="581.95" y="168.2" width="41.53" height="42.68"/></clipPath><clipPath id="clip-path-16"><rect class="cls-2" x="500.87" y="191.86" width="38.78" height="17.72"/></clipPath></defs><title>walking_lady</title><rect class="cls-1" x="-3" y="301" width="824.57" height="40.14"/><g class="cls-3"><path class="cls-4" d="M821.57,305.45c0,22.23-184.75,35.69-410.78,35.69S1.53,327.68,1.53,305.45s183.23-40.24,409.26-40.24S821.57,283.22,821.57,305.45Z"/></g><g class="cls-5"><g class="cls-5"><rect class="cls-6" x="528" y="160.19" width="7.69" height="92.89"/><rect class="cls-6" x="529.92" y="67.76" width="3.84" height="102.65"/><g class="cls-5"><path class="cls-7" d="M543.73,71.31a11.89,11.89,0,1,1-11.88-11.89,11.88,11.88,0,0,1,11.88,11.89"/><path class="cls-6" d="M534.39,84.13h-5.28a.73.73,0,0,1,0-1.45h5.28a.73.73,0,0,1,0,1.45"/><path class="cls-6" d="M537.65,160.19H526a.8.8,0,1,1,0-1.59h11.69a.8.8,0,0,1,0,1.59"/><rect class="cls-6" x="197.54" y="159.28" width="7.69" height="92.89"/><rect class="cls-6" x="199.46" y="66.84" width="3.84" height="102.65"/><path class="cls-7" d="M213.27,70.39a11.89,11.89,0,1,1-11.89-11.88,11.89,11.89,0,0,1,11.89,11.88"/><path class="cls-6" d="M203.92,83.22h-5.27a.73.73,0,0,1-.73-.73.73.73,0,0,1,.73-.72h5.27a.72.72,0,0,1,.73.72.73.73,0,0,1-.73.73"/><path class="cls-6" d="M207.18,159.28H195.5a.8.8,0,0,1,0-1.6h11.68a.8.8,0,0,1,0,1.6"/><rect class="cls-8" x="370.92" y="50.03" width="63.55" height="201.41"/><rect class="cls-7" x="402.7" y="50.03" width="31.78" height="200.86"/><rect class="cls-8" x="378.18" y="30.26" width="22.44" height="19.77"/><rect class="cls-7" x="395.27" y="30.26" width="5.35" height="19.77"/><polyline class="cls-6" points="365.63 50.03 365.63 48.88 436.34 48.88 436.34 50.03"/><rect class="cls-9" x="383.47" y="58.66" width="5.38" height="11.34"/><path class="cls-6" d="M402.7,74.45c0,.12-7.11.22-15.89.22s-15.89-.1-15.89-.22,7.11-.21,15.89-.21,15.89.09,15.89.21"/><rect class="cls-6" x="415.52" y="58.66" width="5.38" height="11.34"/><path class="cls-6" d="M434.75,74.45c0,.12-7.11.22-15.89.22S403,74.57,403,74.45s7.11-.21,15.88-.21,15.89.09,15.89.21"/><rect class="cls-6" x="415.52" y="81.18" width="5.38" height="11.34"/><path class="cls-6" d="M434.75,97c0,.12-7.11.22-15.89.22S403,97.09,403,97s7.11-.21,15.88-.21,15.89.09,15.89.21"/><rect class="cls-6" x="415.52" y="104.38" width="5.38" height="11.34"/><path class="cls-6" d="M434.75,120.17c0,.12-7.11.22-15.89.22s-15.88-.1-15.88-.22,7.11-.21,15.88-.21,15.89.09,15.89.21"/><rect class="cls-6" x="415.52" y="127.58" width="5.38" height="11.34"/><path class="cls-6" d="M434.75,143.37c0,.12-7.11.22-15.89.22s-15.88-.1-15.88-.22,7.11-.21,15.88-.21,15.89.09,15.89.21"/><rect class="cls-6" x="415.52" y="150.11" width="5.38" height="11.34"/><path class="cls-6" d="M434.75,165.91c0,.12-7.11.22-15.89.22S403,166,403,165.91s7.11-.22,15.88-.22,15.89.1,15.89.22"/><rect class="cls-6" x="415.52" y="172.74" width="5.38" height="11.34"/><rect class="cls-6" x="415.52" y="195.67" width="5.38" height="11.34"/><path class="cls-6" d="M434.75,188.54c0,.12-7.11.21-15.89.21s-15.88-.09-15.88-.21,7.11-.22,15.88-.22,15.89.1,15.89.22"/><rect class="cls-9" x="383.47" y="81.52" width="5.38" height="11.34"/><path class="cls-6" d="M402.7,97.32c0,.12-7.11.21-15.89.21s-15.89-.09-15.89-.21,7.11-.22,15.89-.22,15.89.1,15.89.22"/><rect class="cls-9" x="383.47" y="104.39" width="5.38" height="11.34"/><path class="cls-6" d="M402.7,120.18c0,.12-7.11.22-15.89.22s-15.89-.1-15.89-.22S378,120,386.81,120s15.89.1,15.89.22"/><rect class="cls-9" x="383.47" y="127.25" width="5.38" height="11.34"/><path class="cls-6" d="M402.7,143.05c0,.11-7.11.21-15.89.21s-15.89-.1-15.89-.21,7.11-.22,15.89-.22,15.89.1,15.89.22"/><rect class="cls-9" x="383.47" y="150.11" width="5.38" height="11.34"/><path class="cls-6" d="M402.7,165.91c0,.12-7.11.22-15.89.22s-15.89-.1-15.89-.22,7.11-.22,15.89-.22,15.89.1,15.89.22"/><rect class="cls-9" x="383.47" y="172.98" width="5.38" height="11.34"/><path class="cls-6" d="M402.7,188.77c0,.12-7.11.22-15.89.22s-15.89-.1-15.89-.22,7.11-.21,15.89-.21,15.89.09,15.89.21"/><rect class="cls-9" x="383.47" y="195.84" width="5.38" height="11.34"/><rect class="cls-6" x="433.17" y="162.77" width="46.72" height="88.68"/><rect class="cls-7" x="457.99" y="162.77" width="21.91" height="88.68"/><rect class="cls-8" x="442.97" y="171.12" width="4.2" height="10.21"/><rect class="cls-8" x="442.97" y="211.06" width="4.2" height="10.21"/><path class="cls-8" d="M458,185.33c0,.09-5.56.16-12.41.16s-12.41-.07-12.41-.16,5.56-.16,12.41-.16,12.41.07,12.41.16"/><rect class="cls-8" x="442.97" y="191.24" width="4.2" height="10.21"/><path class="cls-8" d="M458,205.45c0,.09-5.56.16-12.41.16s-12.41-.07-12.41-.16,5.56-.16,12.41-.16,12.41.08,12.41.16"/><rect class="cls-6" x="462.64" y="171.12" width="4.2" height="10.21"/><rect class="cls-6" x="471.76" y="171.12" width="4.2" height="10.21"/><rect class="cls-6" x="462.64" y="190.48" width="4.2" height="10.21"/><rect class="cls-6" x="471.76" y="190.48" width="4.2" height="10.21"/><rect class="cls-6" x="462.64" y="209.85" width="4.2" height="10.21"/><rect class="cls-6" x="471.76" y="209.85" width="4.2" height="10.21"/><rect class="cls-6" x="429.66" y="160.63" width="53.75" height="2.22"/><path class="cls-7" d="M480.22,163.06c0,.09-10.44.16-23.32.16s-23.32-.07-23.32-.16,10.44-.16,23.32-.16,23.32.07,23.32.16"/><rect class="cls-7" x="327.35" y="108.67" width="54.55" height="142.78"/><rect class="cls-6" x="354.62" y="108.67" width="27.27" height="142.78"/><rect class="cls-7" x="333.58" y="91.7" width="19.26" height="16.97"/><rect class="cls-6" x="348.25" y="91.7" width="4.59" height="16.97"/><rect class="cls-6" x="322.8" y="107.68" width="60.69" height="0.99"/><rect class="cls-10" x="338.12" y="116.07" width="4.62" height="9.74"/><path class="cls-6" d="M354.62,129.63c0,.1-6.1.18-13.63.18s-13.64-.08-13.64-.18,6.1-.19,13.64-.19,13.63.08,13.63.19"/><rect class="cls-8" x="365.63" y="116.07" width="4.62" height="9.74"/><path class="cls-7" d="M382.13,129.63c0,.1-6.1.18-13.63.18s-13.64-.08-13.64-.18,6.1-.19,13.64-.19,13.63.08,13.63.19"/><rect class="cls-8" x="365.63" y="135.4" width="4.62" height="9.74"/><path class="cls-7" d="M382.13,149c0,.1-6.1.18-13.63.18s-13.64-.08-13.64-.18,6.1-.19,13.64-.19,13.63.08,13.63.19"/><rect class="cls-8" x="365.63" y="155.31" width="4.62" height="9.74"/><path class="cls-7" d="M382.13,168.87c0,.1-6.1.19-13.63.19s-13.64-.09-13.64-.19,6.1-.19,13.64-.19,13.63.09,13.63.19"/><rect class="cls-8" x="365.63" y="175.23" width="4.62" height="9.74"/><path class="cls-7" d="M382.13,188.78c0,.11-6.1.19-13.63.19s-13.64-.08-13.64-.19,6.1-.18,13.64-.18,13.63.08,13.63.18"/><rect class="cls-8" x="365.63" y="194.57" width="4.62" height="9.74"/><path class="cls-7" d="M382.13,208.13c0,.1-6.1.18-13.63.18s-13.64-.08-13.64-.18,6.1-.19,13.64-.19,13.63.08,13.63.19"/><rect class="cls-8" x="365.63" y="213.99" width="4.62" height="9.74"/><rect class="cls-8" x="365.63" y="233.67" width="4.62" height="9.74"/><path class="cls-7" d="M382.13,227.55c0,.1-6.1.18-13.63.18s-13.64-.08-13.64-.18,6.1-.19,13.64-.19,13.63.09,13.63.19"/><rect class="cls-10" x="338.12" y="135.7" width="4.62" height="9.74"/><path class="cls-6" d="M354.62,149.25c0,.1-6.1.19-13.63.19s-13.64-.09-13.64-.19,6.1-.18,13.64-.18,13.63.08,13.63.18"/><rect class="cls-10" x="338.12" y="155.32" width="4.62" height="9.74"/><path class="cls-6" d="M354.62,168.88c0,.1-6.1.18-13.63.18s-13.64-.08-13.64-.18,6.1-.19,13.64-.19,13.63.08,13.63.19"/><rect class="cls-10" x="338.12" y="174.94" width="4.62" height="9.74"/><path class="cls-6" d="M354.62,188.5c0,.1-6.1.19-13.63.19s-13.64-.09-13.64-.19,6.1-.18,13.64-.18,13.63.08,13.63.18"/><rect class="cls-10" x="338.12" y="194.57" width="4.62" height="9.74"/><path class="cls-6" d="M354.62,208.13c0,.1-6.1.18-13.63.18s-13.64-.08-13.64-.18,6.1-.19,13.64-.19,13.63.08,13.63.19"/><rect class="cls-10" x="338.12" y="214.19" width="4.62" height="9.74"/><path class="cls-6" d="M354.62,227.75c0,.1-6.1.19-13.63.19s-13.64-.09-13.64-.19,6.1-.18,13.64-.18,13.63.08,13.63.18"/><rect class="cls-10" x="338.12" y="233.82" width="4.62" height="9.74"/><rect class="cls-6" x="294.76" y="162.77" width="46.72" height="88.68"/><rect class="cls-7" x="319.57" y="162.77" width="21.91" height="88.68"/><rect class="cls-8" x="304.56" y="171.12" width="4.2" height="10.21"/><rect class="cls-8" x="304.56" y="211.06" width="4.2" height="10.21"/><path class="cls-8" d="M319.57,185.33c0,.09-5.55.16-12.4.16s-12.41-.07-12.41-.16,5.55-.16,12.41-.16,12.4.07,12.4.16"/><rect class="cls-8" x="304.56" y="191.24" width="4.2" height="10.21"/><path class="cls-8" d="M319.57,205.45c0,.09-5.55.16-12.4.16s-12.41-.07-12.41-.16,5.55-.16,12.41-.16,12.4.08,12.4.16"/><rect class="cls-6" x="324.23" y="171.12" width="4.2" height="10.21"/><rect class="cls-6" x="333.34" y="171.12" width="4.2" height="10.21"/><rect class="cls-6" x="324.23" y="190.48" width="4.2" height="10.21"/><rect class="cls-6" x="333.34" y="190.48" width="4.2" height="10.21"/><rect class="cls-6" x="324.23" y="209.85" width="4.2" height="10.21"/><rect class="cls-6" x="333.34" y="209.85" width="4.2" height="10.21"/><rect class="cls-6" x="291.25" y="160.63" width="53.75" height="2.22"/><path class="cls-7" d="M341.81,163.06c0,.09-10.44.16-23.32.16s-23.33-.07-23.33-.16,10.44-.16,23.33-.16,23.32.07,23.32.16"/><rect class="cls-7" x="264.05" y="196.03" width="41.83" height="55.17"/><rect class="cls-6" x="286.27" y="196.03" width="19.61" height="55.17"/><rect class="cls-8" x="272.82" y="203.5" width="3.76" height="9.14"/><rect class="cls-8" x="272.82" y="239.26" width="3.76" height="9.14"/><path class="cls-8" d="M286.27,216.22c0,.1-5,.19-11.11.19s-11.11-.09-11.11-.19,5-.18,11.11-.18,11.11.08,11.11.18"/><rect class="cls-8" x="272.82" y="221.51" width="3.76" height="9.14"/><path class="cls-8" d="M286.27,234.24c0,.1-5,.18-11.11.18s-11.11-.08-11.11-.18,5-.19,11.11-.19,11.11.09,11.11.19"/><rect class="cls-8" x="290.43" y="203.5" width="3.76" height="9.14"/><rect class="cls-8" x="298.59" y="203.5" width="3.76" height="9.14"/><rect class="cls-8" x="290.43" y="220.84" width="3.76" height="9.14"/><rect class="cls-8" x="298.59" y="220.84" width="3.76" height="9.14"/><rect class="cls-8" x="290.43" y="238.17" width="3.76" height="9.14"/><rect class="cls-8" x="298.59" y="238.17" width="3.76" height="9.14"/><rect class="cls-6" x="260.91" y="194.11" width="48.12" height="1.99"/><path class="cls-7" d="M306.17,196.28c0,.11-9.35.19-20.88.19s-20.88-.08-20.88-.19,9.35-.18,20.88-.18,20.88.08,20.88.18"/><path class="cls-7" d="M450.11,87.58h38.14s-3.37-6.13-13.19-5.24c-9.38.85-9.85-3-14.62-3.5S451.7,82,450.11,87.58"/><path class="cls-7" d="M291,57.27h38.14S325.79,51.13,316,52c-9.38.86-9.85-3-14.62-3.49s-8.74,3.18-10.33,8.74"/><path class="cls-9" d="M542.74,94.84h69.43s-6.14-11.17-24-9.54c-17.07,1.55-17.94-5.5-26.62-6.37s-15.91,5.79-18.8,15.91"/><path class="cls-7" d="M564.29,65.6h60.27s-5.33-9.7-20.85-8.29c-14.81,1.35-15.57-4.77-23.1-5.53s-13.81,5-16.32,13.82"/></g><g class="cls-5"><path class="cls-11" d="M611.73,301.56c0,.1-96,.18-214.47.18s-214.49-.08-214.49-.18,96-.17,214.49-.17,214.47.08,214.47.17"/><rect class="cls-7" x="178.06" y="251.68" width="36.84" height="8.67"/><rect class="cls-8" x="215.74" y="251.68" width="36.84" height="8.67"/><rect class="cls-7" x="253.42" y="251.68" width="36.84" height="8.67"/><rect class="cls-8" x="291.1" y="251.68" width="36.84" height="8.67"/><rect class="cls-7" x="328.77" y="251.68" width="36.84" height="8.67"/><rect class="cls-8" x="366.45" y="251.68" width="36.84" height="8.67"/><rect class="cls-7" x="404.13" y="251.68" width="36.84" height="8.67"/><rect class="cls-7" x="441.81" y="251.68" width="36.84" height="8.67"/><rect class="cls-8" x="479.49" y="251.68" width="36.84" height="8.67"/><rect class="cls-7" x="517.16" y="251.68" width="36.84" height="8.67"/><rect class="cls-8" x="554.84" y="251.68" width="36.84" height="8.67"/><rect class="cls-7" x="592.52" y="251.68" width="36.84" height="8.67"/><path class="cls-11" d="M644.43,251.68c0,.1-104.4.18-233.17.18s-233.2-.08-233.2-.18,104.39-.18,233.2-.18,233.17.08,233.17.18"/><path class="cls-11" d="M644.43,260.35c0,.09-104.4.17-233.17.17s-233.2-.08-233.2-.17,104.39-.18,233.2-.18,233.17.08,233.17.18"/><path class="cls-11" d="M215.36,260.3a41.91,41.91,0,0,1,0-7.76,44.36,44.36,0,0,1,0,7.76"/><path class="cls-11" d="M253.06,260.3a44.36,44.36,0,0,1,0-7.76,41.91,41.91,0,0,1,0,7.76"/><path class="cls-11" d="M290.77,260.3a41.91,41.91,0,0,1,0-7.76,41.91,41.91,0,0,1,0,7.76"/><path class="cls-11" d="M328.48,260.3a41.91,41.91,0,0,1,0-7.76,44.36,44.36,0,0,1,0,7.76"/><path class="cls-11" d="M366.18,260.3a44.36,44.36,0,0,1,0-7.76,41.91,41.91,0,0,1,0,7.76"/><path class="cls-11" d="M403.89,260.3a41.91,41.91,0,0,1,0-7.76,41.91,41.91,0,0,1,0,7.76"/><path class="cls-11" d="M441.6,260.3a41.91,41.91,0,0,1,0-7.76,44.36,44.36,0,0,1,0,7.76"/><path class="cls-11" d="M479.3,260.3a44.36,44.36,0,0,1,0-7.76,41.91,41.91,0,0,1,0,7.76"/><path class="cls-11" d="M517,260.3a41.91,41.91,0,0,1,0-7.76,41.91,41.91,0,0,1,0,7.76"/><path class="cls-11" d="M554.72,260.3a41.91,41.91,0,0,1,0-7.76,44.36,44.36,0,0,1,0,7.76"/><path class="cls-11" d="M592.42,260.3a44.36,44.36,0,0,1,0-7.76,41.91,41.91,0,0,1,0,7.76"/><path class="cls-11" d="M630.13,260.3a41.91,41.91,0,0,1,0-7.76,41.91,41.91,0,0,1,0,7.76"/></g><g class="cls-5"><path class="cls-11" d="M413,135.54c-.13-3.12,1.89-5.92,2.43-9,.61-3.47-1-9.48-4.74-11.71a17.14,17.14,0,0,0-8.32-2.51,13.11,13.11,0,0,0-7.71,2.63,19.77,19.77,0,0,0-4.51,6.22,9.76,9.76,0,0,0-1.42,3.79,3.34,3.34,0,0,0,1.76,3.38,5.89,5.89,0,0,0-2.44.18,2,2,0,0,0-1.38,1.84c.06.82,1.11,1.47,1.77,1a10.39,10.39,0,0,0-4,8.42,8.12,8.12,0,0,1-.16,3.19c-.73,1.85-3,2.41-4.75,3.4a6.2,6.2,0,0,0-3.15,4.18,4.1,4.1,0,0,0,2.29,4.45c1,.41,2.31.36,3,1.2s.42,2.15.4,3.28a5.91,5.91,0,0,0,11,3.11c1.15,2.3,4.3,3.1,6.68,2.14a8.75,8.75,0,0,0,4.75-5.74,21.3,21.3,0,0,0,.74-6,12,12,0,0,0,5.33.23c2.95-.62,5.69-3,6-6,.45-4.1-3.43-7.56-3.6-11.69m-7.77,1.72,0-11,3.35-3Z"/><path class="cls-12" d="M384.6,154.93l-.07.07a1,1,0,0,1-.21.19,2.63,2.63,0,0,1-1,.48,3.51,3.51,0,0,1-1.76,0,3.39,3.39,0,0,1-1.9-1.35,4.51,4.51,0,0,1-.79-2.72,5.4,5.4,0,0,1,1.1-3,8.25,8.25,0,0,1,2.73-2.32c1.08-.61,2.27-1.08,3.38-1.72a6.56,6.56,0,0,0,2.65-2.51,6.93,6.93,0,0,0,.56-3.37,23.1,23.1,0,0,1,0-3.22,5.51,5.51,0,0,1,1-2.66,6,6,0,0,1,3.24-2.39,4.15,4.15,0,0,1,1.48-.19,11.53,11.53,0,0,0-1.44.32,6.06,6.06,0,0,0-3.08,2.4,5.52,5.52,0,0,0-.86,2.55,24.41,24.41,0,0,0,0,3.18,7.18,7.18,0,0,1-.57,3.54,6.92,6.92,0,0,1-2.78,2.66c-1.15.66-2.33,1.12-3.39,1.71a8,8,0,0,0-2.64,2.21,5.14,5.14,0,0,0-1.07,2.87,4.31,4.31,0,0,0,.7,2.57,3.21,3.21,0,0,0,1.76,1.3,3.48,3.48,0,0,0,1.67.09,3.67,3.67,0,0,0,1.32-.61"/><path class="cls-13" d="M365.22,277.47c0-.6,25.67-37.12,25.67-37.12l14.17,5.44-32.34,37.26Z"/><path class="cls-14" d="M365.22,277.47l-.23.3-4.4,5.75-5.46,3.74,7.31,14.08h8s-.58-1.94-4.45-2.94l-.26-7.72,7-7.64"/><g class="cls-15"><g class="cls-16"><polygon class="cls-10" points="355.13 287.26 362.44 301.34 370.48 301.35 369.57 300.13 363.03 299.77 356.29 286.47 355.13 287.26"/></g></g><path class="cls-11" d="M366,294.87c-.06.08-.52-.18-1.15-.16s-1.07.27-1.14.19.38-.54,1.14-.55,1.22.46,1.15.52"/><path class="cls-11" d="M365.85,293c-.08.05-.44-.42-1.08-.55s-1.15.17-1.2.09.06-.17.29-.3a1.5,1.5,0,0,1,1.84.37c.16.2.19.36.15.39"/><path class="cls-11" d="M365.9,290.5c-.08,0-.36-.43-.92-.62s-1.06,0-1.1-.1.08-.15.3-.24a1.38,1.38,0,0,1,.92,0,1.39,1.39,0,0,1,.72.57c.12.21.13.36.08.38"/><path class="cls-11" d="M368.06,288.59c-.1,0-.32-.43-.82-.75s-1-.37-1-.47.6-.23,1.2.18.73,1,.63,1"/><path class="cls-11" d="M369.11,286.94a3.58,3.58,0,0,1-.7-.84l-.68-1a2.32,2.32,0,0,1-.37-.65.65.65,0,0,1,0-.49.5.5,0,0,1,.49-.25,1.45,1.45,0,0,1,.75.39,2.77,2.77,0,0,1,.49.55,2.73,2.73,0,0,1,.42,1.17,1.45,1.45,0,0,1-.18,1.09,7.69,7.69,0,0,0-.07-1.05,2.63,2.63,0,0,0-.44-1,2.81,2.81,0,0,0-.44-.48,1.19,1.19,0,0,0-.56-.3.16.16,0,0,0-.15.07.35.35,0,0,0,0,.23,2.65,2.65,0,0,0,.31.56c.21.34.41.68.62,1a3.41,3.41,0,0,1,.49,1"/><path class="cls-11" d="M369.4,287.18s0-.43.43-.91a2,2,0,0,1,2.38-.43.41.41,0,0,1,.13.29.52.52,0,0,1-.1.25,1,1,0,0,1-.29.25,3.35,3.35,0,0,1-.57.33,3.46,3.46,0,0,1-1.06.29,1.6,1.6,0,0,1-1-.09,8.34,8.34,0,0,1,.95-.15,4,4,0,0,0,1-.34,3.57,3.57,0,0,0,.51-.32,1,1,0,0,0,.21-.18c0-.07,0-.05,0-.07a.67.67,0,0,0-.23-.09,1.54,1.54,0,0,0-.3,0,1.79,1.79,0,0,0-.57,0,1.93,1.93,0,0,0-.87.44c-.43.38-.55.75-.6.73"/><g class="cls-15"><g class="cls-17"><path class="cls-10" d="M361.55,287a1,1,0,1,1-1-.95,1,1,0,0,1,1,.95"/></g></g><polygon class="cls-13" points="411.33 242.98 431.37 286.66 441.73 286.66 427.77 241.6 411.33 242.98"/><path class="cls-14" d="M431.15,286.11l6.06,15.6,19.43-7.44c-.82-1.81-12.3-1.69-12.3-1.69l-3.47-10.15Z"/><g class="cls-15"><g class="cls-18"><path class="cls-10" d="M438,294a.86.86,0,0,0-.21,1.12.82.82,0,0,0,1.11.21.91.91,0,0,0,.21-1.18.85.85,0,0,0-1.18-.09"/></g></g><g class="cls-15"><g class="cls-19"><path class="cls-10" d="M437.21,301.71l-.55-1.6,18.84-6.53s1,.05,1.14.69Z"/></g></g><path class="cls-11" d="M444.62,292.36c0,.09-.43.32-.78.8s-.45,1-.55,1-.17-.61.27-1.19,1-.69,1.06-.59"/><path class="cls-11" d="M447,292.42c0,.09-.3.4-.46.93s-.1,1-.2,1-.36-.49-.14-1.13.76-.91.8-.82"/><path class="cls-11" d="M449.07,294.42c-.08.05-.39-.37-.35-1s.41-1,.48-.93-.1.45-.13.95.09.91,0,1"/><path class="cls-11" d="M443.57,290.13c0,.1-.49.14-1,.38s-.87.57-.95.51.19-.55.81-.83,1.18-.15,1.16-.06"/><path class="cls-11" d="M442.22,288s-.33.24-1,.37a5,5,0,0,1-1.14.08,4,4,0,0,1-.67-.09,1.31,1.31,0,0,1-.38-.11.44.44,0,0,1-.24-.49.55.55,0,0,1,.33-.38,1.55,1.55,0,0,1,.39-.09,3.89,3.89,0,0,1,.68,0,3.71,3.71,0,0,1,1.12.25,1.79,1.79,0,0,1,.88.57c0,.05-.37-.17-1-.34a4,4,0,0,0-1.05-.15,3.44,3.44,0,0,0-.63,0c-.22,0-.4.09-.42.2s0,.06.07.1a.85.85,0,0,0,.28.08,4.69,4.69,0,0,0,.62.1,5.54,5.54,0,0,0,1.08,0,10,10,0,0,1,1-.12"/><path class="cls-11" d="M442.15,288.19s-.34-.24-.61-.85a3.11,3.11,0,0,1-.28-1.11,4,4,0,0,1,0-.69.87.87,0,0,1,.44-.73.49.49,0,0,1,.51.12,1.28,1.28,0,0,1,.23.32,1.94,1.94,0,0,1,.25.65,2.39,2.39,0,0,1,0,1.17c-.18.65-.54.91-.56.88a8.17,8.17,0,0,0,.32-.94,2.44,2.44,0,0,0,0-1,2.1,2.1,0,0,0-.24-.56c-.11-.19-.25-.33-.32-.28a.62.62,0,0,0-.21.45,2.62,2.62,0,0,0,0,.62,3.4,3.4,0,0,0,.18,1c.19.59.43.9.38.94"/><path class="cls-13" d="M437.57,202.41l.16.19c.29.07.61.13,1,.19a4.77,4.77,0,0,0,1.6,0,7.25,7.25,0,0,0,1.93-.55c.53-.3,1.16.2.93.71s-1.68,1.39-3.66,1.56.6,1.92,1.53,2.58,3.71,2.82,3.73,3.27c0,.65-.65.81-1.57.13s-3.79-2.51-4.11-2,4.46,3.78,4.46,3.78,1.13.54.78,1.14c-.64,1.08-5.46-2.78-5.91-3.16s-.68.27-.33.54,4.83,3.16,4.19,4.26c-.49.85-4-3.13-5.25-3.22s3,2.76,2.46,3.55c-.19.29-.37.49-2.56-1.49a69.83,69.83,0,0,1-5-5.54Z"/><polygon class="cls-14" points="414.06 149.91 421.56 187.99 438.35 201.95 431.82 209.88 408.85 191.57 404.17 153.53 414.06 149.91"/><g class="cls-20"><g class="cls-21"><polygon points="414.06 149.91 421.56 187.99 438.35 201.95 431.82 209.88 408.85 191.57 404.17 153.53 414.06 149.91"/></g></g><path class="cls-14" d="M415.83,186.13l-1-.16c.31-4,.89-8.43,2.84-11.36a8,8,0,0,0,1.63-5.43c.41-4.29-3-7-3.52-11.31-.54-6.29-.51-9.77-3.25-10.47l-13-2.37s-15.09-2.19-11.59,16.53l6.75,21.28,2.22,1.44c-3.07,2.28-10,8.76-12.07,22.21-2.74,17.48-11.58,55.89-11.58,55.89s12.93-6,24.42,0,24.15,8.47,31.76,4.92,7.64-4.92,7.64-4.92Z"/><path class="cls-11" d="M393.19,189.14l-.1.15-.33.42c-.3.37-.71.94-1.2,1.68a25.2,25.2,0,0,0-3,6.91,43,43,0,0,0-1.36,11.12c-.06,4.24.31,8.89.31,13.8a48.57,48.57,0,0,1-1.83,13.68,79.4,79.4,0,0,1-3.91,10.59c-1.31,2.93-2.47,5.26-3.27,6.86l-.94,1.84-.26.48a.55.55,0,0,1-.09.15s0-.06.06-.17l.22-.49c.22-.45.51-1.08.88-1.87.77-1.62,1.89-4,3.17-6.9a80.83,80.83,0,0,0,3.82-10.57,49.35,49.35,0,0,0,1.79-13.6c0-4.89-.35-9.55-.28-13.8a42.4,42.4,0,0,1,1.45-11.19,24.54,24.54,0,0,1,3.13-6.92,15.62,15.62,0,0,1,1.75-2.17"/><path class="cls-7" d="M434.15,250.89a8.28,8.28,0,0,0-3.48-.06,13.2,13.2,0,0,0-3.82,1.48,49.75,49.75,0,0,0-4.54,3.06,16.39,16.39,0,0,1-6,2.92,10.81,10.81,0,0,1-10.58-4.06,7.61,7.61,0,0,1-1.59-4,4.57,4.57,0,0,1,.39-2.24,3.6,3.6,0,0,1,1.58-1.69,3.72,3.72,0,0,1,2.32-.4,3.6,3.6,0,0,1,2.1,1.13,3.54,3.54,0,0,1,1,2.17,4.12,4.12,0,0,1-.5,2.29,6.33,6.33,0,0,1-3.42,2.91,9.83,9.83,0,0,1-4.31.54,14.72,14.72,0,0,1-4.05-1,46.89,46.89,0,0,1-6.74-3.61,26.86,26.86,0,0,0-6-2.81,11,11,0,0,0-5.36-.39,8.37,8.37,0,0,0-3.67,1.72,6.39,6.39,0,0,0-1.64,2c-.28.53-.35.84-.38.83a2.14,2.14,0,0,1,.07-.23,3.07,3.07,0,0,1,.25-.63,6.27,6.27,0,0,1,1.61-2.07,8.46,8.46,0,0,1,3.72-1.8,11.11,11.11,0,0,1,5.48.34,27.28,27.28,0,0,1,6,2.8,48.12,48.12,0,0,0,6.71,3.56,14.78,14.78,0,0,0,4,.93,9.28,9.28,0,0,0,4.16-.53,6,6,0,0,0,3.23-2.74,3.83,3.83,0,0,0,.46-2.1,3.17,3.17,0,0,0-.89-2,3.27,3.27,0,0,0-1.89-1,3.38,3.38,0,0,0-2.1.36,3.24,3.24,0,0,0-1.44,1.53,4.18,4.18,0,0,0-.35,2.07A7.26,7.26,0,0,0,406,254a10.1,10.1,0,0,0,3,2.67,10.48,10.48,0,0,0,7.24,1.3,16.16,16.16,0,0,0,5.89-2.84,50.56,50.56,0,0,1,4.58-3,13.65,13.65,0,0,1,3.9-1.44,7.92,7.92,0,0,1,2.62,0,4,4,0,0,1,.88.23"/><g class="cls-20"><g class="cls-22"><path d="M386.87,223.35c3.85-.33,7.88-1,10.9-3.36a15.52,15.52,0,0,0,4.75-7.33,26.08,26.08,0,0,0,.87-13.32c-.25-1.26-.58-2.66.08-3.77s2.23-1.53,3.59-1.55c1.73,0,3.44.33,5.16.28a5.85,5.85,0,0,0,4.58-2L399,190.58c-1.55-.15-3.23-.27-4.54.57s-1.92,2.52-2.4,4l-4.32,13.6A37.39,37.39,0,0,0,386,216a12.67,12.67,0,0,0,1.08,7.22"/></g></g><path class="cls-12" d="M383.74,186.88c-3.59,2.93-7.55,8.08-10.26,11.84s-4.42,8.47-3.66,13A14.51,14.51,0,0,0,380.47,223a16.72,16.72,0,0,0,15.17-4.15,19.7,19.7,0,0,0,5.93-14.78c-.18-7.08-3.84-13.82-3.39-20.89A83.57,83.57,0,0,1,400.39,169a32.44,32.44,0,0,0-3.6-22.25,5.34,5.34,0,0,0-2.2-2.31c-1-.44-.32.26-.72,1.27s.45,2.21,1.17,3.14c2.74,3.55,3.78,8.2,3.68,12.69a52.47,52.47,0,0,1-2.46,13.2c-1,3.35-2,6.75-4.06,9.57s-5,2.75-8.46,2.6"/><path class="cls-11" d="M393.61,189.47s0,.1-.06.3-.13.49-.26.85a18.83,18.83,0,0,1-1.34,3,20.92,20.92,0,0,1-7.46,7.73,10.32,10.32,0,0,1-5.67,1.79,5.08,5.08,0,0,1-4.21-2.28,3.83,3.83,0,0,1-.29-3.24,3.2,3.2,0,0,1,.46-.77c.15-.15.22-.22.23-.21a4.44,4.44,0,0,0-.56,1,3.75,3.75,0,0,0,.37,3.06,4.86,4.86,0,0,0,4,2.08,10.1,10.1,0,0,0,5.47-1.76,21.38,21.38,0,0,0,7.42-7.56,22.69,22.69,0,0,0,1.43-2.91,11,11,0,0,1,.45-1.11"/><path class="cls-11" d="M378.86,201.31a1.68,1.68,0,0,1,.59-.24,2.56,2.56,0,0,1,.75-.12,1.43,1.43,0,0,1,1,.36,1.57,1.57,0,0,1,.46,1.18,2.49,2.49,0,0,1-.48,1.36,9.24,9.24,0,0,1-1,1.14,4.5,4.5,0,0,1-1.39.95,2.18,2.18,0,0,1-1.72-.06,1.51,1.51,0,0,1-.82-1.38,2.79,2.79,0,0,1,.39-1.38,4.51,4.51,0,0,1,.72-1,4.37,4.37,0,0,1,1.44-1,1.59,1.59,0,0,1,.61-.18,6.45,6.45,0,0,0-1.87,1.35,3.55,3.55,0,0,0-1,2.19,1.17,1.17,0,0,0,.65,1.08,1.82,1.82,0,0,0,1.43,0,4,4,0,0,0,1.28-.87,8.37,8.37,0,0,0,1-1.08,2.19,2.19,0,0,0,.46-1.18,1.36,1.36,0,0,0-.34-1,1.7,1.7,0,0,0-1.53-.29,2.62,2.62,0,0,1-.62.11"/><path class="cls-11" d="M392,221.55s.11-.32.21-.9a4.76,4.76,0,0,0-.23-2.44,4.44,4.44,0,0,0-.89-1.44,4.23,4.23,0,0,0-1.61-1,10.81,10.81,0,0,0-4.49-.32,27.19,27.19,0,0,0-8.06,1.91c-1,.41-1.77.79-2.3,1.05a5.58,5.58,0,0,1-.85.4,4.83,4.83,0,0,1,.78-.52,22.73,22.73,0,0,1,2.27-1.16,25.23,25.23,0,0,1,8.13-2,10.88,10.88,0,0,1,4.63.38,4.43,4.43,0,0,1,1.72,1.14,4.67,4.67,0,0,1,.9,1.55,4.72,4.72,0,0,1,.14,2.56,4,4,0,0,1-.23.66c-.07.14-.11.22-.12.21"/><path class="cls-11" d="M392.61,213.38a3.59,3.59,0,0,1-2.57,2.34c0-.1.65-.46,1.35-1.1s1.13-1.29,1.22-1.24"/><path class="cls-11" d="M393.6,214.89c.08,0-.35.76-1.25,1.15a2,2,0,0,1-1.7.15c0-.1.75-.1,1.55-.47s1.32-.9,1.4-.83"/><path class="cls-11" d="M372.59,216.64c.09,0,.36.41.82.81s.94.62.92.72-.62,0-1.15-.45-.68-1.05-.59-1.08"/><path class="cls-7" d="M386.36,206.09a5.82,5.82,0,0,1,.89-1.76,5.75,5.75,0,0,1,1.19-1.58,10.83,10.83,0,0,1-2.08,3.34"/><path class="cls-7" d="M394.47,208.81c-.06.08-.7-.39-1.24-1.18a2.86,2.86,0,0,1-.67-1.58c.1,0,.44.63,1,1.38s1,1.31,1,1.38"/><path class="cls-7" d="M396.58,200.1c.06.08-.43.54-1.1,1s-1.26.82-1.31.74.43-.54,1.1-1,1.26-.82,1.31-.74"/><path class="cls-7" d="M395.39,194.94c-.1,0-.24-.48-.33-1.1s-.08-1.14,0-1.15.25.48.33,1.1.08,1.14,0,1.15"/><path class="cls-7" d="M399.16,207.73c-.1,0-.05-.66.1-1.43a3.2,3.2,0,0,1,.45-1.36c.1,0,.05.66-.1,1.43a3,3,0,0,1-.45,1.36"/><path class="cls-7" d="M384.92,213.4c-.06.08-.55-.15-1-.62s-.7-.95-.62-1,.43.31.87.75.81.79.76.87"/><path class="cls-7" d="M376.07,214.48a3.47,3.47,0,0,1-1.38.66c-.8.28-1.47.43-1.5.33a3.47,3.47,0,0,1,1.38-.66,3.58,3.58,0,0,1,1.5-.33"/><path class="cls-7" d="M374.36,210.62c-.08.06-.66-.47-1.3-1.2a4.66,4.66,0,0,1-1-1.43c.08-.07.66.47,1.3,1.19a4.51,4.51,0,0,1,1,1.44"/><path class="cls-7" d="M372.85,203.36c-.07-.07.22-.51.66-1s.85-.82.92-.76-.22.52-.66,1-.85.83-.92.76"/><path class="cls-7" d="M381.29,206.77c0,.09-.57.48-1.37.88a4.15,4.15,0,0,1-1.52.56c0-.09.57-.48,1.36-.88a3.72,3.72,0,0,1,1.53-.56"/><path class="cls-7" d="M379.87,198.12a3.57,3.57,0,0,1-.53-1.67,3.5,3.5,0,0,1,0-1.74,5.71,5.71,0,0,1,.36,1.69,5.45,5.45,0,0,1,.18,1.72"/><path class="cls-7" d="M385.61,195.8c-.09,0-.39-.46-.66-1.1s-.43-1.2-.34-1.24.39.45.66,1.1.43,1.2.34,1.24"/><path class="cls-7" d="M389.89,191.38a2.32,2.32,0,0,1-1.5.62,2.3,2.3,0,0,1-1.61-.17,10.63,10.63,0,0,1,1.56-.18,11.43,11.43,0,0,1,1.55-.27"/><path class="cls-7" d="M395.47,215.81c-.09,0,.08-.63.47-1.26s.85-1.05.92-1-.24.56-.62,1.17-.68,1.12-.77,1.08"/><path class="cls-7" d="M381.72,221.43c-.05.08-.59-.13-1.21-.47s-1.09-.69-1-.77.59.12,1.21.46,1.08.69,1,.78"/><path class="cls-7" d="M385.61,220.69c-.08-.06.18-.49.46-1s.47-1,.57-1,0,.55-.26,1.13-.7.94-.77.87"/><path class="cls-7" d="M397.88,175.36c.08.06-.19.58-.61,1.15s-.82,1-.89,1,.19-.57.61-1.15.81-1,.89-.95"/><path class="cls-7" d="M398.64,171.66c-.09,0-.07-.57.05-1.23s.3-1.19.4-1.18.07.58,0,1.24-.3,1.19-.4,1.17"/><path class="cls-7" d="M399.66,163.9c-.1,0-.07-.39,0-.81s.29-.75.39-.72.07.39-.05.82-.3.74-.39.71"/><path class="cls-7" d="M399.64,159c-.1,0-.18-.19-.18-.44s.08-.43.18-.43.17.19.17.43-.08.44-.17.44"/><path class="cls-13" d="M411.93,118.47V118c-6.21-1.85-13.56-1.77-17.34,3.42l2.79,25c.18,3.49,3.06,8.35,6.81,11.28a3.81,3.81,0,0,0,6.14-3.43c-.32-2.68-.65-5.63-.82-7.56a1.89,1.89,0,0,0-.13-.52c0-.05,0-.09,0-.14-.31-3.22-.57-6.62-.57-6.62s4.08-1.09,4.41-6.59c.31-5.24-1.28-14.37-1.28-14.37"/><path class="cls-11" d="M411.93,125.1a.7.7,0,0,1-.6.77.67.67,0,0,1-.78-.56.69.69,0,0,1,.6-.76.67.67,0,0,1,.78.55"/><path class="cls-11" d="M411.93,124.34c-.08.1-.65-.24-1.39-.17s-1.26.51-1.35.42,0-.2.25-.4a1.91,1.91,0,0,1,2.18-.21c.25.16.34.31.31.36"/><path class="cls-11" d="M404.16,126.11a.7.7,0,0,1-.6.77.68.68,0,0,1-.78-.56.71.71,0,0,1,.6-.77.68.68,0,0,1,.78.56"/><path class="cls-11" d="M404.16,125.38c-.08.1-.64-.24-1.39-.17s-1.26.51-1.35.42,0-.21.25-.4a1.92,1.92,0,0,1,2.19-.21c.24.16.34.31.3.36"/><path class="cls-11" d="M407.42,130.65a4.8,4.8,0,0,1,1.19-.34c.19,0,.36-.1.38-.23a1,1,0,0,0-.18-.55c-.23-.44-.46-.91-.71-1.4a24.67,24.67,0,0,1-1.64-3.67,24.36,24.36,0,0,1,1.93,3.53l.69,1.41a1.12,1.12,0,0,1,.17.74.5.5,0,0,1-.29.31,1,1,0,0,1-.32.07,5,5,0,0,1-1.22.13"/><path class="cls-23" d="M408.8,139.43a13.76,13.76,0,0,1-7.44-1.22s2.13,3.55,7.49,2.51Z"/><path class="cls-23" d="M407.28,132.48a1.35,1.35,0,0,0-1.26-.38,1.18,1.18,0,0,0-.8.54.76.76,0,0,0,0,.89.88.88,0,0,0,1,.15,2.76,2.76,0,0,0,.9-.66.88.88,0,0,0,.19-.24.26.26,0,0,0,0-.28"/><path class="cls-11" d="M405.27,131.38c.12,0,.2.79,1,1.3s1.61.33,1.62.44-.17.18-.54.23A2.09,2.09,0,0,1,406,133a1.73,1.73,0,0,1-.74-1.09c-.07-.34,0-.55.06-.55"/><path class="cls-7" d="M411.26,137.93a2.81,2.81,0,0,1,.13.38c.07.24.17.61.29,1.08a13.24,13.24,0,0,1,.38,4.11,21.69,21.69,0,0,1-.26,2.85,7.74,7.74,0,0,1-.41,1.55,16.88,16.88,0,0,1-.8,1.51,4.36,4.36,0,0,1-1.15,1.41,3.13,3.13,0,0,1-1.86.44,6.69,6.69,0,0,1-1.93-.29,8.51,8.51,0,0,1-1.84-.79,7.45,7.45,0,0,1-2.83-2.71,5.05,5.05,0,0,1-.57-1.79c-.13-.59-.26-1.16-.4-1.72-.27-1.11-.49-2.2-.65-3.2s-.32-1.95-.46-2.81c-.27-1.68-.49-3.06-.65-4.07-.06-.45-.11-.81-.16-1.1a2,2,0,0,1,0-.4,1.31,1.31,0,0,1,.11.38c.05.29.13.66.22,1.1.19,1,.44,2.37.76,4,.15.86.32,1.79.5,2.8s.39,2.06.68,3.18c.14.56.28,1.13.41,1.72a4.66,4.66,0,0,0,.54,1.69,7.14,7.14,0,0,0,2.71,2.57,7.81,7.81,0,0,0,1.76.76,6.4,6.4,0,0,0,1.83.28,2.76,2.76,0,0,0,1.67-.37,4.23,4.23,0,0,0,1.06-1.3c.28-.49.58-1,.79-1.45a7.43,7.43,0,0,0,.41-1.5,21.08,21.08,0,0,0,.3-2.8,14,14,0,0,0-.27-4.07l-.22-1.1a1.78,1.78,0,0,1-.06-.39"/><polygon class="cls-11" points="425.31 177.21 423.25 194.66 434.43 194.66 435.98 177.24 425.31 177.21"/><path class="cls-7" d="M429,195.21a7.52,7.52,0,0,1,0,.84,10.5,10.5,0,0,0,.16,2.38,20.1,20.1,0,0,1,.47,3.77,10.27,10.27,0,0,1-1.12,4.91,6.35,6.35,0,0,1-2,2.22,5.84,5.84,0,0,1-3,1,4.56,4.56,0,0,1-3.25-1.08,6.32,6.32,0,0,1-1.71-3.21c-.31-1.21-.47-2.47-.85-3.68a12,12,0,0,0-1.79-3.44c-1.52-2.16-3.58-4.17-4.66-6.88a22,22,0,0,1-1.31-8.21c0-2.69.08-5.27-.05-7.73-.25-4.91-1.05-9.29-1.51-13a59.63,59.63,0,0,1-.61-8.81c0-1,.05-1.85.1-2.4,0-.26,0-.46,0-.62l0-.21a.67.67,0,0,1,0,.21c0,.16,0,.37,0,.63,0,.54-.05,1.35,0,2.39a65.34,65.34,0,0,0,.71,8.78c.5,3.69,1.33,8.07,1.59,13,.15,2.46.05,5.06.07,7.73a22.06,22.06,0,0,0,1.3,8.09c1,2.63,3.06,4.61,4.61,6.81a12.72,12.72,0,0,1,1.84,3.54c.38,1.25.54,2.51.84,3.69a6,6,0,0,0,1.6,3.07,4.25,4.25,0,0,0,3,1,5.75,5.75,0,0,0,2.9-.95,6.34,6.34,0,0,0,1.89-2.12,10.11,10.11,0,0,0,1.14-4.79,20,20,0,0,0-.41-3.75,9.92,9.92,0,0,1-.09-2.41c0-.27,0-.48.07-.62a1.76,1.76,0,0,1,0-.21"/><path class="cls-7" d="M428.48,194.66l-.1,1.38a.51.51,0,0,0,1,.12l.22-1.5Z"/><path class="cls-14" d="M394.59,145.49c2.7.1,2.53,2.66,2.82,5.35a58.79,58.79,0,0,1,.18,9.32c-.47,9.21-4.63,18-4.63,18l26.43,3.95-1,10.17L385,188.71a7.92,7.92,0,0,1-6.73-10.2c3-9.71,7.87-23.71,9-26,1.48-3.13,3.8-7.13,7.37-7"/><path class="cls-11" d="M383.74,188.47h.17l.5.07,1.94.29c1.69.24,4.15.58,7.24.94,6.18.73,14.86,1.6,24.84,2.37l-.16.13c.31-3.23.63-6.65,1-10.15h0l.12.16-26.42-4-.14,0,0-.14c1.72-5.32,3-9.71,3.82-12.81.39-1.54.67-2.76.84-3.59.08-.4.15-.72.19-1l.08-.32s0,.11,0,.33-.08.54-.16.95c-.15.84-.4,2.06-.78,3.61-.74,3.11-2,7.53-3.72,12.86l-.1-.16L419.41,182l.14,0v.16c-.34,3.5-.67,6.92-1,10.15v.15l-.14,0c-10-.78-18.67-1.69-24.84-2.47-3.09-.38-5.55-.76-7.24-1l-1.93-.33-.5-.1-.16,0"/><path class="cls-13" d="M424.83,181.15l-.25,2.12,7.87.19s0,2.43-.73,3.16c0,0,.73,1.47-.08,2.28s-1.3.57-1.3.57.33,1.62-.48,2-11.35-.23-11.35-.23l.65-6.78,2.36-.21c.77-2.19,2.14-3.05,3.31-3.13"/><path class="cls-11" d="M398.65,159.66c2.19-.86-2-8-.91-11.44a37.24,37.24,0,0,0,1.53-12.92c-.2-2-.91-3.89-.71-5.85.24-2.34.07-3.87,2.13-5s6.54-2.54,6.17-7.45a20.24,20.24,0,0,0,3.7,5.48c.69.69,2.93.92,3.42.4s-1.4-4.92-1.76-5.53a4.14,4.14,0,0,0-1.57-1.39c-3.34-2-7.48-2.91-11.19-1.72s-6.71,4.8-6.51,8.68c.11,2,1,4,.7,6-.28,1.76-1.47,3.22-2.37,4.77s-1.51,3.53-.6,5.08c.39.67,1.05,1.21,1.19,2s-.27,1.53-.26,2.31c0,1,1.76,1.06,1.87,2.07,1.11,10.24,4.09,12.09,5.17,14.52"/><path class="cls-12" d="M406.57,117.13a.91.91,0,0,1,0,.22,4.49,4.49,0,0,1-.11.61,7,7,0,0,1-.91,2.12,7.64,7.64,0,0,1-2.43,2.41,9.08,9.08,0,0,1-1.84.84,5.1,5.1,0,0,0-1.83,1c-1,.95-1.56,2.34-2.55,3.24a5.31,5.31,0,0,1-3.12,1.39,5.17,5.17,0,0,1-2.29-.25,4.13,4.13,0,0,1-.57-.26c-.13-.07-.19-.12-.18-.13s.28.11.79.26a5.7,5.7,0,0,0,2.22.14,5.32,5.32,0,0,0,2.93-1.39c.91-.83,1.4-2.21,2.54-3.26a5.37,5.37,0,0,1,1.94-1,8.88,8.88,0,0,0,1.79-.79,7.6,7.6,0,0,0,2.39-2.27,9.93,9.93,0,0,0,1.24-2.81"/><path class="cls-12" d="M388.72,124.62a2.22,2.22,0,0,0,.34.78,2.62,2.62,0,0,0,2.05.87,4,4,0,0,0,3-1.39,18.82,18.82,0,0,0,1.17-1.71,4.27,4.27,0,0,1,1.63-1.64,5,5,0,0,1,2.28-.36,9.65,9.65,0,0,0,2.05-.15,8.21,8.21,0,0,0,3.17-1.39,10.44,10.44,0,0,0,2.22-2.34s0,.08-.09.21a3.88,3.88,0,0,1-.33.57,7.72,7.72,0,0,1-1.65,1.76,8.11,8.11,0,0,1-3.25,1.51,9.21,9.21,0,0,1-2.12.17,4.9,4.9,0,0,0-2.12.34,4.13,4.13,0,0,0-1.51,1.51,14.41,14.41,0,0,1-1.21,1.73,4.23,4.23,0,0,1-3.26,1.43,2.66,2.66,0,0,1-2.16-1,1.54,1.54,0,0,1-.24-.62c0-.16,0-.24,0-.24"/></g><g class="cls-5"><path class="cls-12" d="M249.17,214.63a42.21,42.21,0,0,1-25.9-19.48,37.52,37.52,0,0,1-2.72-31c2.83-7.88,8.28-14.81,10.62-22.83,2.65-9.09,1.07-18.74-.56-28.05s-3.31-18.92-.82-28.06,10.31-17.72,20.38-18.37c9.34-.6,18,5.86,21.87,13.82s3.92,17.07,3,25.77-2.68,17.4-2.12,26.13c1.12,17.67,11.72,34.31,10.48,52-.65,9.2-4.46,15.09-11,22-5.62,6-15,9.88-23.25,8"/><path class="cls-11" d="M252.47,302.2c-.09,0-.17-39.15-.17-87.43s.08-87.44.17-87.44.18,39.14.18,87.44-.08,87.43-.18,87.43"/><path class="cls-11" d="M252,184.08a12.22,12.22,0,0,1-1.62-1.42c-1-.91-2.26-2.19-3.64-3.67s-2.65-2.77-3.56-3.72a12.57,12.57,0,0,1-1.43-1.58,13.5,13.5,0,0,1,1.61,1.42c1,.91,2.27,2.2,3.64,3.67s2.65,2.77,3.57,3.72a15,15,0,0,1,1.43,1.58"/><rect class="cls-11" x="223.73" y="294.94" width="58.48" height="7.14"/><path class="cls-11" d="M253,147.45a11.71,11.71,0,0,0,3.57-1.49,9.87,9.87,0,0,0,4.43-7.45s0-.1,0-.15l.2.17a7.65,7.65,0,0,0-4.3,2.36,16.45,16.45,0,0,0-2.4,3.23,26.65,26.65,0,0,0-1.25,2.39,5,5,0,0,1-.45.88,5.55,5.55,0,0,1,.32-.93,23.91,23.91,0,0,1,1.16-2.45,15.4,15.4,0,0,1,2.38-3.32,7.92,7.92,0,0,1,4.49-2.49l.22,0,0,.2s0,.11,0,.16a9.91,9.91,0,0,1-4.64,7.63,9.1,9.1,0,0,1-2.65,1.13,6.29,6.29,0,0,1-.78.14,1.18,1.18,0,0,1-.28,0"/><path class="cls-11" d="M253,147.45a22.32,22.32,0,0,1,2.45-3,23,23,0,0,1,2.72-2.84,21.8,21.8,0,0,1-2.45,3.05,21.65,21.65,0,0,1-2.72,2.83"/><path class="cls-14" d="M261.3,287c-6-4.91-6.76-13.23-5.93-20.58a8.1,8.1,0,0,1,.77-3.57,2.51,2.51,0,0,1,3.16-1.05c.88.5,1.19,1.59,1.64,2.51a7.12,7.12,0,0,0,2.67,3,2.72,2.72,0,0,0,2.5.43c1.11-.5,1.35-2,1.44-3.18.16-2.29.33-4.57.49-6.85a11.52,11.52,0,0,1,.66-3.6,3.78,3.78,0,0,1,2.59-2.38,2.31,2.31,0,0,1,2.73,1.76,11.22,11.22,0,0,1-.09,1.53,1.29,1.29,0,0,0,.66,1.27,1.49,1.49,0,0,0,1.39-.45,16.5,16.5,0,0,0,3.27-4.18,22.27,22.27,0,0,1,3.08-4.34,6.61,6.61,0,0,1,4.68-2.16,4,4,0,0,1,3.85,3c.31,1.76-.84,3.43-2,4.74a27.33,27.33,0,0,1-6.12,5,2.37,2.37,0,0,0-1,.95c-.33.8.38,1.67,1.17,2a13.9,13.9,0,0,0,2.83.55A2.75,2.75,0,0,1,287.9,263c.41,1.29-.74,2.52-1.84,3.29a23.69,23.69,0,0,1-7.24,3.46,7.75,7.75,0,0,0-2.67,1,2.28,2.28,0,0,0-.93,2.54,2.31,2.31,0,0,0,2.43,1.16,16.21,16.21,0,0,0,2.77-.81c1.73-.5,3.89-.22,4.85,1.32a3.86,3.86,0,0,1,.15,3.46,9,9,0,0,1-2.1,2.88,23.6,23.6,0,0,1-10.6,6.27c-4,1-7.65,1.12-11.42-.6"/><g class="cls-24"><g class="cls-25"><path d="M261.3,287c-6-4.91-6.76-13.23-5.93-20.58a8.1,8.1,0,0,1,.77-3.57,2.51,2.51,0,0,1,3.16-1.05c.88.5,1.19,1.59,1.64,2.51a7.12,7.12,0,0,0,2.67,3,2.72,2.72,0,0,0,2.5.43c1.11-.5,1.35-2,1.44-3.18.16-2.29.33-4.57.49-6.85a11.52,11.52,0,0,1,.66-3.6,3.78,3.78,0,0,1,2.59-2.38,2.31,2.31,0,0,1,2.73,1.76,11.22,11.22,0,0,1-.09,1.53,1.29,1.29,0,0,0,.66,1.27,1.49,1.49,0,0,0,1.39-.45,16.5,16.5,0,0,0,3.27-4.18,22.27,22.27,0,0,1,3.08-4.34,6.61,6.61,0,0,1,4.68-2.16,4,4,0,0,1,3.85,3c.31,1.76-.84,3.43-2,4.74a27.33,27.33,0,0,1-6.12,5,2.37,2.37,0,0,0-1,.95c-.33.8.38,1.67,1.17,2a13.9,13.9,0,0,0,2.83.55A2.75,2.75,0,0,1,287.9,263c.41,1.29-.74,2.52-1.84,3.29a23.69,23.69,0,0,1-7.24,3.46,7.75,7.75,0,0,0-2.67,1,2.28,2.28,0,0,0-.93,2.54,2.31,2.31,0,0,0,2.43,1.16,16.21,16.21,0,0,0,2.77-.81c1.73-.5,3.89-.22,4.85,1.32a3.86,3.86,0,0,1,.15,3.46,9,9,0,0,1-2.1,2.88,23.6,23.6,0,0,1-10.6,6.27c-4,1-7.65,1.12-11.42-.6"/></g></g><path class="cls-11" d="M289.22,246.32l-.12.11-.39.29c-.35.26-.85.64-1.49,1.15a44.68,44.68,0,0,0-5.07,4.68c-1,1.06-2,2.27-3.15,3.59s-2.26,2.74-3.43,4.28a55.21,55.21,0,0,0-3.43,5c-.55.9-1,1.84-1.55,2.81s-1,1.94-1.54,2.93a114.75,114.75,0,0,0-5.29,11.44,54.13,54.13,0,0,0-2.82,9.88,39.39,39.39,0,0,0-.66,6.9c0,.82,0,1.46,0,1.89,0,.2,0,.37,0,.49v.17s0-.06,0-.17,0-.28,0-.49c0-.43-.07-1.07-.08-1.89a37.61,37.61,0,0,1,.59-6.93,53.66,53.66,0,0,1,2.79-9.93,111.6,111.6,0,0,1,5.28-11.46c.52-1,1-2,1.54-2.94s1-1.91,1.56-2.81a54.34,54.34,0,0,1,3.46-5c1.17-1.54,2.34-3,3.45-4.27s2.17-2.53,3.18-3.58a42.42,42.42,0,0,1,5.13-4.64c.64-.5,1.16-.87,1.51-1.11l.4-.28.14-.09"/><path class="cls-11" d="M272,265.29a1.83,1.83,0,0,1-.08-.53c0-.34-.08-.84-.12-1.46-.07-1.23-.12-2.93-.17-4.82s-.12-3.58-.21-4.8c-.05-.62-.09-1.11-.13-1.46a2,2,0,0,1,0-.53,3.37,3.37,0,0,1,.11.52c.06.34.13.84.19,1.45.14,1.23.24,2.94.29,4.82s.07,3.53.1,4.81c0,.58,0,1.07,0,1.46a3.72,3.72,0,0,1,0,.54"/><path class="cls-11" d="M288,263.59a4.53,4.53,0,0,1-.63,0c-.41,0-1,0-1.72,0-1.46,0-3.46.17-5.67.41s-4.19.55-5.62.81c-.72.12-1.3.24-1.7.32a2.86,2.86,0,0,1-.62.1,4,4,0,0,1,.6-.19c.4-.1,1-.25,1.69-.39a55.61,55.61,0,0,1,5.63-.88,54.89,54.89,0,0,1,5.68-.34c.73,0,1.32,0,1.73,0a2.64,2.64,0,0,1,.63.06"/><path class="cls-11" d="M263.79,282.24a1,1,0,0,1-.1-.2c-.06-.16-.13-.36-.22-.59-.19-.52-.45-1.27-.76-2.2-.62-1.86-1.39-4.46-2.2-7.34s-1.56-5.48-2.14-7.36c-.28-.91-.52-1.66-.69-2.21l-.18-.61a.65.65,0,0,1-.05-.21,1.6,1.6,0,0,1,.09.2l.22.59c.2.51.45,1.26.76,2.19.62,1.87,1.39,4.47,2.21,7.35s1.55,5.48,2.13,7.35c.29.91.52,1.66.69,2.22.08.24.14.44.19.6a1.33,1.33,0,0,1,.05.22"/><path class="cls-11" d="M285.22,277.14s-.07,0-.21.07l-.62.16-2.3.55c-1.94.46-4.61,1.13-7.56,1.88s-5.63,1.39-7.57,1.82c-1,.21-1.77.38-2.32.48l-.63.11a1.17,1.17,0,0,1-.22,0,.51.51,0,0,1,.21-.07l.62-.16,2.3-.55c1.94-.46,4.61-1.13,7.56-1.88s5.63-1.4,7.58-1.82c1-.21,1.76-.38,2.31-.48l.63-.11.22,0"/><path class="cls-14" d="M250.24,280.94c11.79-8.54,14.24-24.06,13.53-38-.12-2.32.09-4.77-1-6.79s-3.75-3.37-5.81-2.36c-1.71.85-2.43,2.86-3.36,4.54a13.57,13.57,0,0,1-5.36,5.29c-1.46.8-3.29,1.3-4.76.52-2-1.07-2.3-3.84-2.33-6.15q-.08-6.45-.14-12.91a21.56,21.56,0,0,0-.81-6.85,7.15,7.15,0,0,0-4.59-4.76c-2.2-.58-4.9.73-5.32,3a21.27,21.27,0,0,0,0,2.88,2.45,2.45,0,0,1-1.38,2.31,2.83,2.83,0,0,1-2.56-1,30.73,30.73,0,0,1-5.65-8.23,42.46,42.46,0,0,0-5.29-8.5c-2.21-2.51-5.23-4.47-8.54-4.6s-6.8,2-7.58,5.23,1.17,6.54,3.28,9.14a51.8,51.8,0,0,0,10.91,10.05,4.25,4.25,0,0,1,1.83,1.9c.53,1.53-.91,3.08-2.42,3.61-1.71.61-3.58.46-5.38.7s-3.73,1.07-4.38,2.79c-.91,2.37,1.11,4.81,3.08,6.4a44,44,0,0,0,13.19,7.32,15.06,15.06,0,0,1,4.9,2.28c1.39,1.17,2.25,3.23,1.45,4.87s-2.91,2.2-4.7,1.9a31.18,31.18,0,0,1-5.1-1.85c-3.19-1.14-7.29-.85-9.27,1.93a7.29,7.29,0,0,0-.67,6.47,16.7,16.7,0,0,0,3.6,5.65,44.46,44.46,0,0,0,19.18,13c7.41,2.43,14.24,3,21.51.2"/><path class="cls-11" d="M251.16,301.57c.22-3.08.05-4.81-.56-10.32a100.89,100.89,0,0,0-4.1-19,205.53,205.53,0,0,0-8.59-22.14l-2.55-5.68c-.84-1.87-1.68-3.72-2.6-5.48a103.56,103.56,0,0,0-5.91-9.79c-2-3-4.07-5.83-6-8.43s-3.77-5-5.55-7.09a81.41,81.41,0,0,0-9.1-9.3c-1.16-1-2.08-1.76-2.71-2.27l-.73-.56-.25-.19s.07.08.23.22l.69.6c.62.53,1.52,1.3,2.66,2.33a85,85,0,0,1,9,9.37c1.76,2.11,3.59,4.5,5.5,7.1s3.94,5.41,6,8.44a104.32,104.32,0,0,1,5.87,9.77c.92,1.75,1.74,3.58,2.59,5.45s1.68,3.77,2.54,5.69a210.24,210.24,0,0,1,8.61,22.08,102.4,102.4,0,0,1,4.17,18.88c.65,5.49.86,7.2.69,10.28"/><path class="cls-11" d="M232.63,239a4.13,4.13,0,0,0,.21-1c.11-.64.24-1.57.39-2.72.28-2.31.57-5.51.88-9s.63-6.71.95-9c.16-1.14.3-2.07.4-2.71a4.37,4.37,0,0,0,.11-1,4.64,4.64,0,0,0-.27,1c-.15.63-.34,1.55-.53,2.7-.4,2.29-.78,5.48-1.09,9s-.55,6.63-.75,9c-.1,1.09-.18,2-.25,2.74a5.48,5.48,0,0,0-.05,1"/><path class="cls-11" d="M202.85,233.93a6.4,6.4,0,0,0,1.19.12c.76,0,1.86.13,3.22.26,2.73.25,6.48.72,10.6,1.42s7.81,1.52,10.47,2.17c1.33.32,2.4.61,3.14.81a6.61,6.61,0,0,0,1.16.26,5.83,5.83,0,0,0-1.11-.43c-.73-.24-1.79-.57-3.12-.93-2.64-.73-6.34-1.59-10.47-2.3a106.1,106.1,0,0,0-10.64-1.3c-1.37-.1-2.48-.13-3.25-.13a5.83,5.83,0,0,0-1.19.05"/><path class="cls-11" d="M246.13,271.74a1.7,1.7,0,0,0,.2-.36c.13-.3.29-.65.49-1.09.42-.94,1-2.32,1.68-4,1.37-3.43,3.12-8.22,5-13.53s3.56-10.12,4.87-13.57c.63-1.68,1.16-3.06,1.55-4.08.16-.45.3-.81.41-1.11a1.42,1.42,0,0,0,.12-.4,1.7,1.7,0,0,0-.2.36l-.48,1.09c-.43.94-1,2.32-1.68,4-1.38,3.43-3.13,8.22-5,13.53s-3.56,10.12-4.86,13.57l-1.56,4.08-.41,1.11a2.08,2.08,0,0,0-.12.4"/><path class="cls-11" d="M206.46,259.7a1.61,1.61,0,0,0,.39.15l1.16.37,4.24,1.3c3.59,1.09,8.53,2.66,14,4.41s10.41,3.27,14,4.29c1.81.51,3.27.91,4.29,1.16l1.17.29a1.34,1.34,0,0,0,.42.07l-.39-.15-1.16-.37-4.24-1.29c-3.59-1.1-8.53-2.67-14-4.41s-10.41-3.27-14-4.3c-1.81-.51-3.27-.91-4.29-1.16l-1.17-.29a1.87,1.87,0,0,0-.42-.07"/><path class="cls-14" d="M586.34,210.88c-4.45-5.79-5.82-16.88-2.69-23.47a20.62,20.62,0,0,0,6.66,6.15,51.88,51.88,0,0,1-3.21-11l5.72-4.42c.77,1.64,1.34,5,2.84,6.69-1.54-2.48-1-8.12.83-9.79a20.65,20.65,0,0,1,7.58-4.15,57.17,57.17,0,0,1,10.71-2.55c2.42-.3,5.13-.31,7,1.28,2.61,2.27,2,6.7-.2,9.35s-5.56,4-8.65,5.57a61,61,0,0,0-26.56,26.33"/><path class="cls-14" d="M561.25,184.05c4.45-5.78,5.82-16.88,2.69-23.47a20.62,20.62,0,0,1-6.66,6.15,51.88,51.88,0,0,0,3.21-11l-5.72-4.41c-.77,1.63-1.34,5-2.84,6.68,1.53-2.48,1-8.12-.83-9.79a20.65,20.65,0,0,0-7.58-4.15,56.38,56.38,0,0,0-10.71-2.54c-2.42-.31-5.13-.32-7,1.27-2.61,2.27-2,6.7.2,9.35s5.56,4,8.65,5.58a61,61,0,0,1,26.56,26.32"/><path class="cls-14" d="M573.36,172.26c2.47-3.23,6.16-5.28,9.21-8s5.62-6.69,4.64-10.64l-5.49,1.69a14.32,14.32,0,0,0,6.42-17.28l-1.88.34a8.9,8.9,0,0,0,4.16-6.36,20.51,20.51,0,0,0-.48-7.79,60.07,60.07,0,0,0-4.14-12.45c-1.61,1.11-3.67,1.23-5.58,1.66s-4,1.44-4.48,3.33c-.82,3,2.7,5.73,2.27,8.79a14.25,14.25,0,0,0-6.31-4.74c-.1,2.29-2.85,4-2.55,6.26a5.22,5.22,0,0,0,1,2.11l7.58,11a90.86,90.86,0,0,1-13.45-6.47c.79,13.44,3,26.52,9.07,38.53"/><path class="cls-11" d="M615.82,177.46l-.18.13-.57.34c-.49.3-1.25.69-2.17,1.28a65.82,65.82,0,0,0-7.52,5.41c-.76.6-1.51,1.31-2.32,2s-1.59,1.48-2.39,2.3a62.23,62.23,0,0,0-4.88,5.48c-.81,1-1.55,2.1-2.33,3.21-.38.56-.79,1.11-1.16,1.69l-1.09,1.79c-.76,1.18-1.37,2.48-2.06,3.75-.36.64-.62,1.32-.94,2s-.63,1.34-.9,2A74,74,0,0,0,582.8,225a86.54,86.54,0,0,0-1.07,13.69c0,2,.08,3.72.12,5.28s.21,2.88.29,4,.21,1.91.27,2.51c0,.27.05.48.06.65a.91.91,0,0,1,0,.22.74.74,0,0,1,0-.22c0-.16-.06-.38-.1-.65-.08-.59-.19-1.43-.33-2.5s-.23-2.43-.36-4-.19-3.33-.17-5.29a84.1,84.1,0,0,1,1-13.74,72.8,72.8,0,0,1,4.5-16.25c.28-.7.61-1.37.91-2s.59-1.36.94-2c.7-1.28,1.31-2.59,2.09-3.77l1.09-1.79c.37-.59.79-1.14,1.17-1.7.78-1.11,1.53-2.21,2.35-3.22a62.84,62.84,0,0,1,4.93-5.49c.81-.82,1.64-1.56,2.42-2.3s1.57-1.39,2.34-2a61.86,61.86,0,0,1,7.61-5.33c.94-.57,1.7-1,2.21-1.23l.58-.3.2-.1"/><path class="cls-11" d="M568.88,249.64a1.39,1.39,0,0,1,0-.27c0-.2,0-.46,0-.8,0-.72-.06-1.75-.1-3.06s-.09-3-.1-4.86-.07-4-.06-6.42c0-4.77.07-10.44.27-16.74s.58-13.21,1.12-20.46,1.25-14.15,2-20.4,1.52-11.88,2.25-16.59c.34-2.36.71-4.48,1-6.35s.59-3.47.83-4.78l.56-3c.07-.33.12-.59.16-.78a1,1,0,0,1,.06-.26.93.93,0,0,1,0,.27c0,.19-.07.45-.12.79-.11.71-.28,1.72-.49,3s-.49,2.92-.78,4.79-.63,4-1,6.36c-.7,4.71-1.45,10.33-2.18,16.58s-1.38,13.15-1.94,20.39-.9,14.16-1.14,20.45-.33,12-.35,16.73c0,2.38,0,4.53,0,6.42s0,3.52.05,4.85,0,2.35,0,3.07v.8a1.1,1.1,0,0,1,0,.27"/><path class="cls-11" d="M549.1,163.22a4.2,4.2,0,0,1,.34.44l.94,1.29c.41.55.9,1.24,1.43,2.07s1.18,1.74,1.82,2.8,1.36,2.2,2.07,3.47,1.46,2.63,2.23,4.08c1.49,2.91,3,6.17,4.42,9.67s2.53,6.93,3.46,10.07c.43,1.58.86,3.07,1.19,4.49s.64,2.73.88,4,.44,2.31.62,3.28.3,1.8.38,2.49.16,1.18.21,1.57a4.4,4.4,0,0,1,0,.56,4.46,4.46,0,0,1-.12-.55q-.1-.59-.27-1.56c-.11-.69-.25-1.52-.45-2.48s-.38-2.06-.66-3.26-.56-2.53-.93-3.93-.77-2.9-1.22-4.47c-.94-3.12-2.08-6.52-3.47-10s-2.91-6.75-4.38-9.66c-.76-1.45-1.47-2.83-2.19-4.08s-1.4-2.43-2-3.49-1.24-2-1.76-2.82-1-1.54-1.38-2.11l-.88-1.32a3.25,3.25,0,0,1-.29-.48"/><g class="cls-26"><g class="cls-27"><path d="M586.34,210.88c-4.45-5.79-5.82-16.88-2.69-23.47a20.62,20.62,0,0,0,6.66,6.15,51.88,51.88,0,0,1-3.21-11l5.72-4.42c.77,1.64,1.34,5,2.84,6.69-1.54-2.48-1-8.12.83-9.79a20.65,20.65,0,0,1,7.58-4.15,57.17,57.17,0,0,1,10.71-2.55c2.42-.3,5.13-.31,7,1.28,2.61,2.27,2,6.7-.2,9.35s-5.56,4-8.65,5.57a61,61,0,0,0-26.56,26.33"/></g></g><path class="cls-14" d="M539.65,203.57c-2.36,1-4.2,2.89-6.33,4.32s-5,2.34-7.22,1.11l1.92-3.07a9,9,0,0,1-11.55,1.13L517,206a5.61,5.61,0,0,1-4.54,1.51,13,13,0,0,1-4.66-1.54,38,38,0,0,1-6.91-4.52,10,10,0,0,0,1.91-3.13c.57-1.09,3.29-2.62,3.29-2.62l4.44,3.22a8.91,8.91,0,0,1-1.87-4.6c1.41.31,2.88-1.09,4.22-.54.46.19,2.08.05,2.47.36a18.31,18.31,0,0,1,3.78,3.85c-.34-3.11-.6-3.09-1.44-6.11,8.05,2.65,15.65,6.09,22,11.72"/><g class="cls-20"><g class="cls-28"><path d="M539.65,203.57c-2.36,1-4.2,2.89-6.33,4.32s-5,2.34-7.22,1.11l1.92-3.07a9,9,0,0,1-11.55,1.13L517,206a5.61,5.61,0,0,1-4.54,1.51,13,13,0,0,1-4.66-1.54,38,38,0,0,1-6.91-4.52,10,10,0,0,0,1.91-3.13c.57-1.09,3.29-2.62,3.29-2.62l4.44,3.22a8.91,8.91,0,0,1-1.87-4.6c1.41.31,2.88-1.09,4.22-.54.46.19,2.08.05,2.47.36a18.31,18.31,0,0,1,3.78,3.85c-.34-3.11-.6-3.09-1.44-6.11,8.05,2.65,15.65,6.09,22,11.72"/></g></g><path class="cls-11" d="M521.23,201.65a10.78,10.78,0,0,1,2.4-1,16.27,16.27,0,0,1,7.08-.48A24.54,24.54,0,0,1,540.5,204a66,66,0,0,1,10,8.16,66.69,66.69,0,0,1,8.37,9.86,53.89,53.89,0,0,1,5.13,9.22,47.8,47.8,0,0,1,2.32,6.73c.2.82.33,1.46.42,1.89,0,.2.07.36.1.49s0,.17,0,.17,0,0-.06-.16-.08-.29-.13-.49q-.18-.68-.48-1.86a52.21,52.21,0,0,0-2.41-6.67,56.59,56.59,0,0,0-5.18-9.14,68.42,68.42,0,0,0-8.35-9.79,66.94,66.94,0,0,0-9.95-8.13,24.52,24.52,0,0,0-9.65-3.9,16.53,16.53,0,0,0-7,.38,15.93,15.93,0,0,0-1.82.64l-.46.21c-.1,0-.15.06-.16.05"/><path class="cls-12" d="M617.47,252.5c-4.3-13.37-19.63-22.13-33.33-19.05a33.08,33.08,0,0,0-54.36,7.09,42.68,42.68,0,0,0-43.32,5.09l-9,5.64Z"/></g></g></g></svg>